<svg width="320" height="492" viewBox="0 0 320 492" fill="none" xmlns="http://www.w3.org/2000/svg">
<rect width="320" height="492" fill="black"/>
<rect width="25" height="42" transform="translate(289 186)" fill="white"/>
<rect width="25" height="42" transform="translate(289 245)" fill="white"/>
<g clip-path="url(#clip0)">
<rect width="25" height="42" transform="translate(289 304)" fill="white"/>
<rect width="25" height="42" transform="translate(289 305)" fill="white"/>
</g>
<g clip-path="url(#clip1)">
<rect width="25" height="42" transform="translate(289 363)" fill="white"/>
<rect width="25" height="42" transform="translate(289 364)" fill="white"/>
</g>
<rect width="245" height="101" transform="translate(37 16)" fill="white"/>
<path d="M124.864 28.16L122.68 27.464C122.536 28.088 122.152 28.928 121.912 29.36C120.784 31.544 118.336 35.144 114.208 37.712L115.816 38.96C118.504 37.112 120.64 34.76 122.176 32.6H130.288C129.808 34.568 128.584 37.16 127.024 39.248C125.344 38.072 123.544 36.92 121.96 36.008L120.664 37.328C122.2 38.288 124.024 39.536 125.752 40.784C123.592 43.112 120.52 45.32 116.464 46.568L118.192 48.056C122.248 46.544 125.2 44.336 127.336 41.96C128.32 42.752 129.232 43.496 129.952 44.144L131.368 42.488C130.6 41.864 129.64 41.12 128.632 40.376C130.456 37.928 131.752 35.12 132.376 32.912C132.52 32.528 132.736 31.952 132.952 31.616L131.368 30.656C130.96 30.8 130.432 30.896 129.784 30.896H123.28C123.472 30.608 123.64 30.32 123.784 30.032C124.024 29.6 124.456 28.784 124.864 28.16ZM138.064 38.336L139.024 40.208C142.36 39.176 145.648 37.736 148.168 36.296V45.176C148.168 46.088 148.096 47.288 148.024 47.744H150.376C150.28 47.264 150.232 46.088 150.232 45.176V35.048C152.68 33.416 154.888 31.592 156.712 29.696L155.104 28.208C153.448 30.2 151.048 32.288 148.552 33.848C145.888 35.528 142.216 37.208 138.064 38.336ZM168.088 44.888C168.088 45.776 168.04 46.952 167.92 47.72H170.248C170.152 46.928 170.104 45.632 170.104 44.888C170.104 44.192 170.104 40.568 170.08 36.968C172.744 37.808 176.896 39.416 179.512 40.832L180.328 38.792C177.808 37.52 173.248 35.792 170.08 34.832C170.08 33.32 170.08 31.928 170.08 30.92C170.08 30.2 170.176 29.168 170.248 28.424H167.896C168.04 29.168 168.088 30.248 168.088 30.92V44.888ZM196.576 46.496L197.848 47.552C198.016 47.408 198.28 47.216 198.664 47C201.448 45.632 204.784 43.16 206.848 40.352L205.72 38.72C203.872 41.432 200.92 43.616 198.712 44.624V30.776C198.712 29.864 198.784 29.168 198.808 29H196.6C196.624 29.168 196.744 29.864 196.744 30.776V45.152C196.744 45.632 196.672 46.112 196.576 46.496ZM185.584 46.376L187.384 47.6C189.4 45.92 190.936 43.568 191.656 41C192.304 38.6 192.4 33.464 192.4 30.8C192.4 30.08 192.496 29.36 192.52 29.072H190.312C190.408 29.576 190.48 30.104 190.48 30.824C190.48 33.488 190.456 38.288 189.76 40.472C189.04 42.8 187.6 44.936 185.584 46.376ZM129.782 57.096L128.462 57.648C129.254 58.752 130.046 60.192 130.646 61.44L132.014 60.816C131.462 59.688 130.382 57.96 129.782 57.096ZM132.926 55.944L131.582 56.52C132.398 57.6 133.214 58.968 133.862 60.24L135.23 59.616C134.63 58.512 133.574 56.784 132.926 55.944ZM119.534 56.736L118.454 58.344C119.846 59.16 122.462 60.888 123.614 61.776L124.742 60.12C123.71 59.376 120.95 57.528 119.534 56.736ZM115.934 73.896L117.038 75.84C119.27 75.384 122.582 74.28 124.982 72.864C128.822 70.608 132.134 67.512 134.222 64.296L133.07 62.304C131.126 65.688 127.958 68.832 123.974 71.112C121.55 72.48 118.55 73.44 115.934 73.896ZM115.91 62.136L114.83 63.768C116.294 64.512 118.886 66.192 120.086 67.056L121.166 65.376C120.134 64.632 117.326 62.904 115.91 62.136ZM144.642 60.312L142.578 60.816C142.794 61.176 142.986 61.656 143.154 62.256C143.298 62.712 143.586 63.744 143.946 65.016C142.482 65.28 141.354 65.496 141.018 65.544C140.298 65.664 139.698 65.76 139.026 65.808L139.506 67.632C140.154 67.488 142.122 67.104 144.378 66.648C145.314 70.08 146.466 74.328 146.778 75.408C146.946 76.008 147.066 76.632 147.138 77.16L149.178 76.632C149.034 76.2 148.794 75.456 148.65 75C148.338 73.944 147.162 69.72 146.202 66.264C149.538 65.592 152.922 64.92 153.474 64.824C152.658 66.264 150.858 68.472 149.346 69.768L151.05 70.608C152.682 69 155.154 65.64 156.162 63.6L154.962 62.76C154.722 62.88 154.338 62.976 154.05 63.048C153.234 63.24 149.154 64.032 145.77 64.68C145.41 63.408 145.122 62.376 144.978 61.848C144.834 61.248 144.714 60.72 144.642 60.312ZM164.85 57.408L163.482 58.872C165.258 60.072 168.258 62.64 169.458 63.888L170.97 62.376C169.626 61.032 166.554 58.536 164.85 57.408ZM162.786 73.488L164.058 75.456C168.066 74.712 171.09 73.248 173.49 71.736C177.114 69.456 179.922 66.192 181.554 63.192L180.402 61.152C179.01 64.104 176.082 67.656 172.386 69.984C170.106 71.4 166.986 72.864 162.786 73.488ZM195.978 74.496L197.25 75.552C197.418 75.408 197.682 75.216 198.066 75C200.85 73.632 204.186 71.16 206.25 68.352L205.122 66.72C203.274 69.432 200.322 71.616 198.114 72.624V58.776C198.114 57.864 198.186 57.168 198.21 57H196.002C196.026 57.168 196.146 57.864 196.146 58.776V73.152C196.146 73.632 196.074 74.112 195.978 74.496ZM184.986 74.376L186.786 75.6C188.802 73.92 190.338 71.568 191.058 69C191.706 66.6 191.802 61.464 191.802 58.8C191.802 58.08 191.898 57.36 191.922 57.072H189.714C189.81 57.576 189.882 58.104 189.882 58.824C189.882 61.488 189.858 66.288 189.162 68.472C188.442 70.8 187.002 72.936 184.986 74.376ZM129.979 85.264L128.083 85.792C128.251 86.416 128.443 86.992 128.635 87.568C130.195 96.472 128.155 102.256 122.635 102.256C120.187 102.256 117.955 101.104 117.955 97.72C117.955 92.8 121.603 88.576 123.139 87.472C123.475 87.304 124.099 87.136 124.411 87.04L123.859 85.336C122.443 85.864 118.387 86.44 116.251 86.536C115.819 86.56 115.315 86.56 114.979 86.536L115.123 88.552C115.603 88.48 116.011 88.408 116.467 88.36C117.331 88.24 119.323 88 120.547 87.808C118.411 90.184 116.059 93.64 116.059 98.128C116.059 102.088 118.819 104.2 122.587 104.2C129.235 104.2 131.059 98.44 130.555 92.392C131.467 94.192 132.523 95.752 133.819 97.12L135.067 95.416C131.515 92.248 130.483 88.168 129.979 85.264ZM143.029 84.328L141.133 85.12C142.237 87.736 143.509 90.544 144.613 92.512C142.045 94.312 140.461 96.256 140.461 98.728C140.461 102.328 143.725 103.672 148.237 103.672C151.237 103.672 153.997 103.384 155.821 103.072V100.936C153.949 101.416 150.757 101.752 148.141 101.752C144.349 101.752 142.453 100.504 142.453 98.512C142.453 96.688 143.797 95.104 146.029 93.664C148.381 92.104 151.693 90.52 153.325 89.68C154.021 89.32 154.621 89.008 155.173 88.672L154.117 86.968C153.613 87.376 153.109 87.688 152.413 88.096C151.093 88.816 148.501 90.088 146.245 91.456C145.189 89.56 143.989 86.968 143.029 84.328ZM165.277 86.152V88.12C167.173 88.264 169.213 88.384 171.613 88.384C173.845 88.384 176.461 88.216 178.093 88.096V86.128C176.365 86.296 173.917 86.464 171.613 86.464C169.213 86.464 167.005 86.368 165.277 86.152ZM166.237 95.824L164.293 95.632C164.077 96.616 163.789 97.744 163.789 98.968C163.789 101.992 166.621 103.6 171.493 103.6C174.901 103.6 177.949 103.24 179.677 102.76L179.653 100.696C177.853 101.296 174.757 101.656 171.445 101.656C167.605 101.656 165.733 100.384 165.733 98.56C165.733 97.672 165.925 96.784 166.237 95.824ZM191.029 84.328L189.133 85.12C190.237 87.736 191.509 90.544 192.613 92.512C190.045 94.312 188.461 96.256 188.461 98.728C188.461 102.328 191.725 103.672 196.237 103.672C199.237 103.672 201.997 103.384 203.821 103.072V100.936C201.949 101.416 198.757 101.752 196.141 101.752C192.349 101.752 190.453 100.504 190.453 98.512C190.453 96.688 191.797 95.104 194.029 93.664C196.381 92.104 199.693 90.52 201.325 89.68C202.021 89.32 202.621 89.008 203.173 88.672L202.117 86.968C201.613 87.376 201.109 87.688 200.413 88.096C199.093 88.816 196.501 90.088 194.245 91.456C193.189 89.56 191.989 86.968 191.029 84.328Z" fill="black"/>
<rect width="245" height="101" transform="translate(37 135)" fill="white"/>
<path d="M124.864 147.16L122.68 146.464C122.536 147.088 122.152 147.928 121.912 148.36C120.784 150.544 118.336 154.144 114.208 156.712L115.816 157.96C118.504 156.112 120.64 153.76 122.176 151.6H130.288C129.808 153.568 128.584 156.16 127.024 158.248C125.344 157.072 123.544 155.92 121.96 155.008L120.664 156.328C122.2 157.288 124.024 158.536 125.752 159.784C123.592 162.112 120.52 164.32 116.464 165.568L118.192 167.056C122.248 165.544 125.2 163.336 127.336 160.96C128.32 161.752 129.232 162.496 129.952 163.144L131.368 161.488C130.6 160.864 129.64 160.12 128.632 159.376C130.456 156.928 131.752 154.12 132.376 151.912C132.52 151.528 132.736 150.952 132.952 150.616L131.368 149.656C130.96 149.8 130.432 149.896 129.784 149.896H123.28C123.472 149.608 123.64 149.32 123.784 149.032C124.024 148.6 124.456 147.784 124.864 147.16ZM138.064 157.336L139.024 159.208C142.36 158.176 145.648 156.736 148.168 155.296V164.176C148.168 165.088 148.096 166.288 148.024 166.744H150.376C150.28 166.264 150.232 165.088 150.232 164.176V154.048C152.68 152.416 154.888 150.592 156.712 148.696L155.104 147.208C153.448 149.2 151.048 151.288 148.552 152.848C145.888 154.528 142.216 156.208 138.064 157.336ZM168.088 163.888C168.088 164.776 168.04 165.952 167.92 166.72H170.248C170.152 165.928 170.104 164.632 170.104 163.888C170.104 163.192 170.104 159.568 170.08 155.968C172.744 156.808 176.896 158.416 179.512 159.832L180.328 157.792C177.808 156.52 173.248 154.792 170.08 153.832C170.08 152.32 170.08 150.928 170.08 149.92C170.08 149.2 170.176 148.168 170.248 147.424H167.896C168.04 148.168 168.088 149.248 168.088 149.92V163.888ZM196.576 165.496L197.848 166.552C198.016 166.408 198.28 166.216 198.664 166C201.448 164.632 204.784 162.16 206.848 159.352L205.72 157.72C203.872 160.432 200.92 162.616 198.712 163.624V149.776C198.712 148.864 198.784 148.168 198.808 148H196.6C196.624 148.168 196.744 148.864 196.744 149.776V164.152C196.744 164.632 196.672 165.112 196.576 165.496ZM185.584 165.376L187.384 166.6C189.4 164.92 190.936 162.568 191.656 160C192.304 157.6 192.4 152.464 192.4 149.8C192.4 149.08 192.496 148.36 192.52 148.072H190.312C190.408 148.576 190.48 149.104 190.48 149.824C190.48 152.488 190.456 157.288 189.76 159.472C189.04 161.8 187.6 163.936 185.584 165.376ZM129.782 176.096L128.462 176.648C129.254 177.752 130.046 179.192 130.646 180.44L132.014 179.816C131.462 178.688 130.382 176.96 129.782 176.096ZM132.926 174.944L131.582 175.52C132.398 176.6 133.214 177.968 133.862 179.24L135.23 178.616C134.63 177.512 133.574 175.784 132.926 174.944ZM119.534 175.736L118.454 177.344C119.846 178.16 122.462 179.888 123.614 180.776L124.742 179.12C123.71 178.376 120.95 176.528 119.534 175.736ZM115.934 192.896L117.038 194.84C119.27 194.384 122.582 193.28 124.982 191.864C128.822 189.608 132.134 186.512 134.222 183.296L133.07 181.304C131.126 184.688 127.958 187.832 123.974 190.112C121.55 191.48 118.55 192.44 115.934 192.896ZM115.91 181.136L114.83 182.768C116.294 183.512 118.886 185.192 120.086 186.056L121.166 184.376C120.134 183.632 117.326 181.904 115.91 181.136ZM144.642 179.312L142.578 179.816C142.794 180.176 142.986 180.656 143.154 181.256C143.298 181.712 143.586 182.744 143.946 184.016C142.482 184.28 141.354 184.496 141.018 184.544C140.298 184.664 139.698 184.76 139.026 184.808L139.506 186.632C140.154 186.488 142.122 186.104 144.378 185.648C145.314 189.08 146.466 193.328 146.778 194.408C146.946 195.008 147.066 195.632 147.138 196.16L149.178 195.632C149.034 195.2 148.794 194.456 148.65 194C148.338 192.944 147.162 188.72 146.202 185.264C149.538 184.592 152.922 183.92 153.474 183.824C152.658 185.264 150.858 187.472 149.346 188.768L151.05 189.608C152.682 188 155.154 184.64 156.162 182.6L154.962 181.76C154.722 181.88 154.338 181.976 154.05 182.048C153.234 182.24 149.154 183.032 145.77 183.68C145.41 182.408 145.122 181.376 144.978 180.848C144.834 180.248 144.714 179.72 144.642 179.312ZM164.85 176.408L163.482 177.872C165.258 179.072 168.258 181.64 169.458 182.888L170.97 181.376C169.626 180.032 166.554 177.536 164.85 176.408ZM162.786 192.488L164.058 194.456C168.066 193.712 171.09 192.248 173.49 190.736C177.114 188.456 179.922 185.192 181.554 182.192L180.402 180.152C179.01 183.104 176.082 186.656 172.386 188.984C170.106 190.4 166.986 191.864 162.786 192.488ZM195.978 193.496L197.25 194.552C197.418 194.408 197.682 194.216 198.066 194C200.85 192.632 204.186 190.16 206.25 187.352L205.122 185.72C203.274 188.432 200.322 190.616 198.114 191.624V177.776C198.114 176.864 198.186 176.168 198.21 176H196.002C196.026 176.168 196.146 176.864 196.146 177.776V192.152C196.146 192.632 196.074 193.112 195.978 193.496ZM184.986 193.376L186.786 194.6C188.802 192.92 190.338 190.568 191.058 188C191.706 185.6 191.802 180.464 191.802 177.8C191.802 177.08 191.898 176.36 191.922 176.072H189.714C189.81 176.576 189.882 177.104 189.882 177.824C189.882 180.488 189.858 185.288 189.162 187.472C188.442 189.8 187.002 191.936 184.986 193.376ZM129.979 204.264L128.083 204.792C128.251 205.416 128.443 205.992 128.635 206.568C130.195 215.472 128.155 221.256 122.635 221.256C120.187 221.256 117.955 220.104 117.955 216.72C117.955 211.8 121.603 207.576 123.139 206.472C123.475 206.304 124.099 206.136 124.411 206.04L123.859 204.336C122.443 204.864 118.387 205.44 116.251 205.536C115.819 205.56 115.315 205.56 114.979 205.536L115.123 207.552C115.603 207.48 116.011 207.408 116.467 207.36C117.331 207.24 119.323 207 120.547 206.808C118.411 209.184 116.059 212.64 116.059 217.128C116.059 221.088 118.819 223.2 122.587 223.2C129.235 223.2 131.059 217.44 130.555 211.392C131.467 213.192 132.523 214.752 133.819 216.12L135.067 214.416C131.515 211.248 130.483 207.168 129.979 204.264ZM143.029 203.328L141.133 204.12C142.237 206.736 143.509 209.544 144.613 211.512C142.045 213.312 140.461 215.256 140.461 217.728C140.461 221.328 143.725 222.672 148.237 222.672C151.237 222.672 153.997 222.384 155.821 222.072V219.936C153.949 220.416 150.757 220.752 148.141 220.752C144.349 220.752 142.453 219.504 142.453 217.512C142.453 215.688 143.797 214.104 146.029 212.664C148.381 211.104 151.693 209.52 153.325 208.68C154.021 208.32 154.621 208.008 155.173 207.672L154.117 205.968C153.613 206.376 153.109 206.688 152.413 207.096C151.093 207.816 148.501 209.088 146.245 210.456C145.189 208.56 143.989 205.968 143.029 203.328ZM165.277 205.152V207.12C167.173 207.264 169.213 207.384 171.613 207.384C173.845 207.384 176.461 207.216 178.093 207.096V205.128C176.365 205.296 173.917 205.464 171.613 205.464C169.213 205.464 167.005 205.368 165.277 205.152ZM166.237 214.824L164.293 214.632C164.077 215.616 163.789 216.744 163.789 217.968C163.789 220.992 166.621 222.6 171.493 222.6C174.901 222.6 177.949 222.24 179.677 221.76L179.653 219.696C177.853 220.296 174.757 220.656 171.445 220.656C167.605 220.656 165.733 219.384 165.733 217.56C165.733 216.672 165.925 215.784 166.237 214.824ZM191.029 203.328L189.133 204.12C190.237 206.736 191.509 209.544 192.613 211.512C190.045 213.312 188.461 215.256 188.461 217.728C188.461 221.328 191.725 222.672 196.237 222.672C199.237 222.672 201.997 222.384 203.821 222.072V219.936C201.949 220.416 198.757 220.752 196.141 220.752C192.349 220.752 190.453 219.504 190.453 217.512C190.453 215.688 191.797 214.104 194.029 212.664C196.381 211.104 199.693 209.52 201.325 208.68C202.021 208.32 202.621 208.008 203.173 207.672L202.117 205.968C201.613 206.376 201.109 206.688 200.413 207.096C199.093 207.816 196.501 209.088 194.245 210.456C193.189 208.56 191.989 205.968 191.029 203.328Z" fill="black"/>
<rect width="245" height="101" transform="translate(37 254)" fill="white"/>
<path d="M124.864 266.16L122.68 265.464C122.536 266.088 122.152 266.928 121.912 267.36C120.784 269.544 118.336 273.144 114.208 275.712L115.816 276.96C118.504 275.112 120.64 272.76 122.176 270.6H130.288C129.808 272.568 128.584 275.16 127.024 277.248C125.344 276.072 123.544 274.92 121.96 274.008L120.664 275.328C122.2 276.288 124.024 277.536 125.752 278.784C123.592 281.112 120.52 283.32 116.464 284.568L118.192 286.056C122.248 284.544 125.2 282.336 127.336 279.96C128.32 280.752 129.232 281.496 129.952 282.144L131.368 280.488C130.6 279.864 129.64 279.12 128.632 278.376C130.456 275.928 131.752 273.12 132.376 270.912C132.52 270.528 132.736 269.952 132.952 269.616L131.368 268.656C130.96 268.8 130.432 268.896 129.784 268.896H123.28C123.472 268.608 123.64 268.32 123.784 268.032C124.024 267.6 124.456 266.784 124.864 266.16ZM138.064 276.336L139.024 278.208C142.36 277.176 145.648 275.736 148.168 274.296V283.176C148.168 284.088 148.096 285.288 148.024 285.744H150.376C150.28 285.264 150.232 284.088 150.232 283.176V273.048C152.68 271.416 154.888 269.592 156.712 267.696L155.104 266.208C153.448 268.2 151.048 270.288 148.552 271.848C145.888 273.528 142.216 275.208 138.064 276.336ZM168.088 282.888C168.088 283.776 168.04 284.952 167.92 285.72H170.248C170.152 284.928 170.104 283.632 170.104 282.888C170.104 282.192 170.104 278.568 170.08 274.968C172.744 275.808 176.896 277.416 179.512 278.832L180.328 276.792C177.808 275.52 173.248 273.792 170.08 272.832C170.08 271.32 170.08 269.928 170.08 268.92C170.08 268.2 170.176 267.168 170.248 266.424H167.896C168.04 267.168 168.088 268.248 168.088 268.92V282.888ZM196.576 284.496L197.848 285.552C198.016 285.408 198.28 285.216 198.664 285C201.448 283.632 204.784 281.16 206.848 278.352L205.72 276.72C203.872 279.432 200.92 281.616 198.712 282.624V268.776C198.712 267.864 198.784 267.168 198.808 267H196.6C196.624 267.168 196.744 267.864 196.744 268.776V283.152C196.744 283.632 196.672 284.112 196.576 284.496ZM185.584 284.376L187.384 285.6C189.4 283.92 190.936 281.568 191.656 279C192.304 276.6 192.4 271.464 192.4 268.8C192.4 268.08 192.496 267.36 192.52 267.072H190.312C190.408 267.576 190.48 268.104 190.48 268.824C190.48 271.488 190.456 276.288 189.76 278.472C189.04 280.8 187.6 282.936 185.584 284.376ZM129.782 295.096L128.462 295.648C129.254 296.752 130.046 298.192 130.646 299.44L132.014 298.816C131.462 297.688 130.382 295.96 129.782 295.096ZM132.926 293.944L131.582 294.52C132.398 295.6 133.214 296.968 133.862 298.24L135.23 297.616C134.63 296.512 133.574 294.784 132.926 293.944ZM119.534 294.736L118.454 296.344C119.846 297.16 122.462 298.888 123.614 299.776L124.742 298.12C123.71 297.376 120.95 295.528 119.534 294.736ZM115.934 311.896L117.038 313.84C119.27 313.384 122.582 312.28 124.982 310.864C128.822 308.608 132.134 305.512 134.222 302.296L133.07 300.304C131.126 303.688 127.958 306.832 123.974 309.112C121.55 310.48 118.55 311.44 115.934 311.896ZM115.91 300.136L114.83 301.768C116.294 302.512 118.886 304.192 120.086 305.056L121.166 303.376C120.134 302.632 117.326 300.904 115.91 300.136ZM144.642 298.312L142.578 298.816C142.794 299.176 142.986 299.656 143.154 300.256C143.298 300.712 143.586 301.744 143.946 303.016C142.482 303.28 141.354 303.496 141.018 303.544C140.298 303.664 139.698 303.76 139.026 303.808L139.506 305.632C140.154 305.488 142.122 305.104 144.378 304.648C145.314 308.08 146.466 312.328 146.778 313.408C146.946 314.008 147.066 314.632 147.138 315.16L149.178 314.632C149.034 314.2 148.794 313.456 148.65 313C148.338 311.944 147.162 307.72 146.202 304.264C149.538 303.592 152.922 302.92 153.474 302.824C152.658 304.264 150.858 306.472 149.346 307.768L151.05 308.608C152.682 307 155.154 303.64 156.162 301.6L154.962 300.76C154.722 300.88 154.338 300.976 154.05 301.048C153.234 301.24 149.154 302.032 145.77 302.68C145.41 301.408 145.122 300.376 144.978 299.848C144.834 299.248 144.714 298.72 144.642 298.312ZM164.85 295.408L163.482 296.872C165.258 298.072 168.258 300.64 169.458 301.888L170.97 300.376C169.626 299.032 166.554 296.536 164.85 295.408ZM162.786 311.488L164.058 313.456C168.066 312.712 171.09 311.248 173.49 309.736C177.114 307.456 179.922 304.192 181.554 301.192L180.402 299.152C179.01 302.104 176.082 305.656 172.386 307.984C170.106 309.4 166.986 310.864 162.786 311.488ZM195.978 312.496L197.25 313.552C197.418 313.408 197.682 313.216 198.066 313C200.85 311.632 204.186 309.16 206.25 306.352L205.122 304.72C203.274 307.432 200.322 309.616 198.114 310.624V296.776C198.114 295.864 198.186 295.168 198.21 295H196.002C196.026 295.168 196.146 295.864 196.146 296.776V311.152C196.146 311.632 196.074 312.112 195.978 312.496ZM184.986 312.376L186.786 313.6C188.802 311.92 190.338 309.568 191.058 307C191.706 304.6 191.802 299.464 191.802 296.8C191.802 296.08 191.898 295.36 191.922 295.072H189.714C189.81 295.576 189.882 296.104 189.882 296.824C189.882 299.488 189.858 304.288 189.162 306.472C188.442 308.8 187.002 310.936 184.986 312.376ZM129.979 323.264L128.083 323.792C128.251 324.416 128.443 324.992 128.635 325.568C130.195 334.472 128.155 340.256 122.635 340.256C120.187 340.256 117.955 339.104 117.955 335.72C117.955 330.8 121.603 326.576 123.139 325.472C123.475 325.304 124.099 325.136 124.411 325.04L123.859 323.336C122.443 323.864 118.387 324.44 116.251 324.536C115.819 324.56 115.315 324.56 114.979 324.536L115.123 326.552C115.603 326.48 116.011 326.408 116.467 326.36C117.331 326.24 119.323 326 120.547 325.808C118.411 328.184 116.059 331.64 116.059 336.128C116.059 340.088 118.819 342.2 122.587 342.2C129.235 342.2 131.059 336.44 130.555 330.392C131.467 332.192 132.523 333.752 133.819 335.12L135.067 333.416C131.515 330.248 130.483 326.168 129.979 323.264ZM143.029 322.328L141.133 323.12C142.237 325.736 143.509 328.544 144.613 330.512C142.045 332.312 140.461 334.256 140.461 336.728C140.461 340.328 143.725 341.672 148.237 341.672C151.237 341.672 153.997 341.384 155.821 341.072V338.936C153.949 339.416 150.757 339.752 148.141 339.752C144.349 339.752 142.453 338.504 142.453 336.512C142.453 334.688 143.797 333.104 146.029 331.664C148.381 330.104 151.693 328.52 153.325 327.68C154.021 327.32 154.621 327.008 155.173 326.672L154.117 324.968C153.613 325.376 153.109 325.688 152.413 326.096C151.093 326.816 148.501 328.088 146.245 329.456C145.189 327.56 143.989 324.968 143.029 322.328ZM165.277 324.152V326.12C167.173 326.264 169.213 326.384 171.613 326.384C173.845 326.384 176.461 326.216 178.093 326.096V324.128C176.365 324.296 173.917 324.464 171.613 324.464C169.213 324.464 167.005 324.368 165.277 324.152ZM166.237 333.824L164.293 333.632C164.077 334.616 163.789 335.744 163.789 336.968C163.789 339.992 166.621 341.6 171.493 341.6C174.901 341.6 177.949 341.24 179.677 340.76L179.653 338.696C177.853 339.296 174.757 339.656 171.445 339.656C167.605 339.656 165.733 338.384 165.733 336.56C165.733 335.672 165.925 334.784 166.237 333.824ZM191.029 322.328L189.133 323.12C190.237 325.736 191.509 328.544 192.613 330.512C190.045 332.312 188.461 334.256 188.461 336.728C188.461 340.328 191.725 341.672 196.237 341.672C199.237 341.672 201.997 341.384 203.821 341.072V338.936C201.949 339.416 198.757 339.752 196.141 339.752C192.349 339.752 190.453 338.504 190.453 336.512C190.453 334.688 191.797 333.104 194.029 331.664C196.381 330.104 199.693 328.52 201.325 327.68C202.021 327.32 202.621 327.008 203.173 326.672L202.117 324.968C201.613 325.376 201.109 325.688 200.413 326.096C199.093 326.816 196.501 328.088 194.245 329.456C193.189 327.56 191.989 324.968 191.029 322.328Z" fill="black"/>
<rect width="245" height="101" transform="translate(37 373)" fill="white"/>
<path d="M124.864 385.16L122.68 384.464C122.536 385.088 122.152 385.928 121.912 386.36C120.784 388.544 118.336 392.144 114.208 394.712L115.816 395.96C118.504 394.112 120.64 391.76 122.176 389.6H130.288C129.808 391.568 128.584 394.16 127.024 396.248C125.344 395.072 123.544 393.92 121.96 393.008L120.664 394.328C122.2 395.288 124.024 396.536 125.752 397.784C123.592 400.112 120.52 402.32 116.464 403.568L118.192 405.056C122.248 403.544 125.2 401.336 127.336 398.96C128.32 399.752 129.232 400.496 129.952 401.144L131.368 399.488C130.6 398.864 129.64 398.12 128.632 397.376C130.456 394.928 131.752 392.12 132.376 389.912C132.52 389.528 132.736 388.952 132.952 388.616L131.368 387.656C130.96 387.8 130.432 387.896 129.784 387.896H123.28C123.472 387.608 123.64 387.32 123.784 387.032C124.024 386.6 124.456 385.784 124.864 385.16ZM138.064 395.336L139.024 397.208C142.36 396.176 145.648 394.736 148.168 393.296V402.176C148.168 403.088 148.096 404.288 148.024 404.744H150.376C150.28 404.264 150.232 403.088 150.232 402.176V392.048C152.68 390.416 154.888 388.592 156.712 386.696L155.104 385.208C153.448 387.2 151.048 389.288 148.552 390.848C145.888 392.528 142.216 394.208 138.064 395.336ZM168.088 401.888C168.088 402.776 168.04 403.952 167.92 404.72H170.248C170.152 403.928 170.104 402.632 170.104 401.888C170.104 401.192 170.104 397.568 170.08 393.968C172.744 394.808 176.896 396.416 179.512 397.832L180.328 395.792C177.808 394.52 173.248 392.792 170.08 391.832C170.08 390.32 170.08 388.928 170.08 387.92C170.08 387.2 170.176 386.168 170.248 385.424H167.896C168.04 386.168 168.088 387.248 168.088 387.92V401.888ZM196.576 403.496L197.848 404.552C198.016 404.408 198.28 404.216 198.664 404C201.448 402.632 204.784 400.16 206.848 397.352L205.72 395.72C203.872 398.432 200.92 400.616 198.712 401.624V387.776C198.712 386.864 198.784 386.168 198.808 386H196.6C196.624 386.168 196.744 386.864 196.744 387.776V402.152C196.744 402.632 196.672 403.112 196.576 403.496ZM185.584 403.376L187.384 404.6C189.4 402.92 190.936 400.568 191.656 398C192.304 395.6 192.4 390.464 192.4 387.8C192.4 387.08 192.496 386.36 192.52 386.072H190.312C190.408 386.576 190.48 387.104 190.48 387.824C190.48 390.488 190.456 395.288 189.76 397.472C189.04 399.8 187.6 401.936 185.584 403.376ZM129.782 414.096L128.462 414.648C129.254 415.752 130.046 417.192 130.646 418.44L132.014 417.816C131.462 416.688 130.382 414.96 129.782 414.096ZM132.926 412.944L131.582 413.52C132.398 414.6 133.214 415.968 133.862 417.24L135.23 416.616C134.63 415.512 133.574 413.784 132.926 412.944ZM119.534 413.736L118.454 415.344C119.846 416.16 122.462 417.888 123.614 418.776L124.742 417.12C123.71 416.376 120.95 414.528 119.534 413.736ZM115.934 430.896L117.038 432.84C119.27 432.384 122.582 431.28 124.982 429.864C128.822 427.608 132.134 424.512 134.222 421.296L133.07 419.304C131.126 422.688 127.958 425.832 123.974 428.112C121.55 429.48 118.55 430.44 115.934 430.896ZM115.91 419.136L114.83 420.768C116.294 421.512 118.886 423.192 120.086 424.056L121.166 422.376C120.134 421.632 117.326 419.904 115.91 419.136ZM144.642 417.312L142.578 417.816C142.794 418.176 142.986 418.656 143.154 419.256C143.298 419.712 143.586 420.744 143.946 422.016C142.482 422.28 141.354 422.496 141.018 422.544C140.298 422.664 139.698 422.76 139.026 422.808L139.506 424.632C140.154 424.488 142.122 424.104 144.378 423.648C145.314 427.08 146.466 431.328 146.778 432.408C146.946 433.008 147.066 433.632 147.138 434.16L149.178 433.632C149.034 433.2 148.794 432.456 148.65 432C148.338 430.944 147.162 426.72 146.202 423.264C149.538 422.592 152.922 421.92 153.474 421.824C152.658 423.264 150.858 425.472 149.346 426.768L151.05 427.608C152.682 426 155.154 422.64 156.162 420.6L154.962 419.76C154.722 419.88 154.338 419.976 154.05 420.048C153.234 420.24 149.154 421.032 145.77 421.68C145.41 420.408 145.122 419.376 144.978 418.848C144.834 418.248 144.714 417.72 144.642 417.312ZM164.85 414.408L163.482 415.872C165.258 417.072 168.258 419.64 169.458 420.888L170.97 419.376C169.626 418.032 166.554 415.536 164.85 414.408ZM162.786 430.488L164.058 432.456C168.066 431.712 171.09 430.248 173.49 428.736C177.114 426.456 179.922 423.192 181.554 420.192L180.402 418.152C179.01 421.104 176.082 424.656 172.386 426.984C170.106 428.4 166.986 429.864 162.786 430.488ZM195.978 431.496L197.25 432.552C197.418 432.408 197.682 432.216 198.066 432C200.85 430.632 204.186 428.16 206.25 425.352L205.122 423.72C203.274 426.432 200.322 428.616 198.114 429.624V415.776C198.114 414.864 198.186 414.168 198.21 414H196.002C196.026 414.168 196.146 414.864 196.146 415.776V430.152C196.146 430.632 196.074 431.112 195.978 431.496ZM184.986 431.376L186.786 432.6C188.802 430.92 190.338 428.568 191.058 426C191.706 423.6 191.802 418.464 191.802 415.8C191.802 415.08 191.898 414.36 191.922 414.072H189.714C189.81 414.576 189.882 415.104 189.882 415.824C189.882 418.488 189.858 423.288 189.162 425.472C188.442 427.8 187.002 429.936 184.986 431.376ZM129.979 442.264L128.083 442.792C128.251 443.416 128.443 443.992 128.635 444.568C130.195 453.472 128.155 459.256 122.635 459.256C120.187 459.256 117.955 458.104 117.955 454.72C117.955 449.8 121.603 445.576 123.139 444.472C123.475 444.304 124.099 444.136 124.411 444.04L123.859 442.336C122.443 442.864 118.387 443.44 116.251 443.536C115.819 443.56 115.315 443.56 114.979 443.536L115.123 445.552C115.603 445.48 116.011 445.408 116.467 445.36C117.331 445.24 119.323 445 120.547 444.808C118.411 447.184 116.059 450.64 116.059 455.128C116.059 459.088 118.819 461.2 122.587 461.2C129.235 461.2 131.059 455.44 130.555 449.392C131.467 451.192 132.523 452.752 133.819 454.12L135.067 452.416C131.515 449.248 130.483 445.168 129.979 442.264ZM143.029 441.328L141.133 442.12C142.237 444.736 143.509 447.544 144.613 449.512C142.045 451.312 140.461 453.256 140.461 455.728C140.461 459.328 143.725 460.672 148.237 460.672C151.237 460.672 153.997 460.384 155.821 460.072V457.936C153.949 458.416 150.757 458.752 148.141 458.752C144.349 458.752 142.453 457.504 142.453 455.512C142.453 453.688 143.797 452.104 146.029 450.664C148.381 449.104 151.693 447.52 153.325 446.68C154.021 446.32 154.621 446.008 155.173 445.672L154.117 443.968C153.613 444.376 153.109 444.688 152.413 445.096C151.093 445.816 148.501 447.088 146.245 448.456C145.189 446.56 143.989 443.968 143.029 441.328ZM165.277 443.152V445.12C167.173 445.264 169.213 445.384 171.613 445.384C173.845 445.384 176.461 445.216 178.093 445.096V443.128C176.365 443.296 173.917 443.464 171.613 443.464C169.213 443.464 167.005 443.368 165.277 443.152ZM166.237 452.824L164.293 452.632C164.077 453.616 163.789 454.744 163.789 455.968C163.789 458.992 166.621 460.6 171.493 460.6C174.901 460.6 177.949 460.24 179.677 459.76L179.653 457.696C177.853 458.296 174.757 458.656 171.445 458.656C167.605 458.656 165.733 457.384 165.733 455.56C165.733 454.672 165.925 453.784 166.237 452.824ZM191.029 441.328L189.133 442.12C190.237 444.736 191.509 447.544 192.613 449.512C190.045 451.312 188.461 453.256 188.461 455.728C188.461 459.328 191.725 460.672 196.237 460.672C199.237 460.672 201.997 460.384 203.821 460.072V457.936C201.949 458.416 198.757 458.752 196.141 458.752C192.349 458.752 190.453 457.504 190.453 455.512C190.453 453.688 191.797 452.104 194.029 450.664C196.381 449.104 199.693 447.52 201.325 446.68C202.021 446.32 202.621 446.008 203.173 445.672L202.117 443.968C201.613 444.376 201.109 444.688 200.413 445.096C199.093 445.816 196.501 447.088 194.245 448.456C193.189 446.56 191.989 443.968 191.029 441.328Z" fill="black"/>
<rect width="25" height="42" transform="translate(289 9)" fill="white"/>
<rect width="25" height="42" transform="translate(289 127)" fill="white"/>
<g clip-path="url(#clip2)">
<rect width="25" height="42" transform="translate(289 68)" fill="white"/>
<g clip-path="url(#clip3)">
<rect width="25" height="42" transform="translate(289 69)" fill="white"/>
<rect width="25" height="42" transform="translate(289 70)" fill="white"/>
</g>
</g>
<rect width="25" height="42" transform="translate(6 186)" fill="white"/>
<rect width="25" height="42" transform="translate(6 245)" fill="white"/>
<g clip-path="url(#clip4)">
<rect width="25" height="42" transform="translate(6 304)" fill="white"/>
<rect width="25" height="42" transform="translate(6 305)" fill="white"/>
</g>
<g clip-path="url(#clip5)">
<rect width="25" height="42" transform="translate(6 363)" fill="white"/>
<rect width="25" height="42" transform="translate(6 364)" fill="white"/>
</g>
<g clip-path="url(#clip6)">
<rect width="25" height="42" transform="translate(6 422)" fill="white"/>
<rect width="25" height="42" transform="translate(6 423)" fill="white"/>
</g>
<g clip-path="url(#clip7)">
<rect width="25" height="42" transform="translate(289 422)" fill="white"/>
<rect width="25" height="42" transform="translate(289 423)" fill="white"/>
</g>
<rect width="25" height="42" transform="translate(6 9)" fill="white"/>
<rect width="25" height="42" transform="translate(6 127)" fill="white"/>
<g clip-path="url(#clip8)">
<rect width="25" height="42" transform="translate(6 68)" fill="white"/>
<g clip-path="url(#clip9)">
<rect width="25" height="42" transform="translate(6 69)" fill="white"/>
<rect width="25" height="42" transform="translate(6 70)" fill="white"/>
</g>
</g>
<defs>
<clipPath id="clip0">
<rect width="25" height="42" fill="white" transform="translate(289 304)"/>
</clipPath>
<clipPath id="clip1">
<rect width="25" height="42" fill="white" transform="translate(289 363)"/>
</clipPath>
<clipPath id="clip2">
<rect width="25" height="42" fill="white" transform="translate(289 68)"/>
</clipPath>
<clipPath id="clip3">
<rect width="25" height="42" fill="white" transform="translate(289 69)"/>
</clipPath>
<clipPath id="clip4">
<rect width="25" height="42" fill="white" transform="translate(6 304)"/>
</clipPath>
<clipPath id="clip5">
<rect width="25" height="42" fill="white" transform="translate(6 363)"/>
</clipPath>
<clipPath id="clip6">
<rect width="25" height="42" fill="white" transform="translate(6 422)"/>
</clipPath>
<clipPath id="clip7">
<rect width="25" height="42" fill="white" transform="translate(289 422)"/>
</clipPath>
<clipPath id="clip8">
<rect width="25" height="42" fill="white" transform="translate(6 68)"/>
</clipPath>
<clipPath id="clip9">
<rect width="25" height="42" fill="white" transform="translate(6 69)"/>
</clipPath>
</defs>
</svg>
