<svg width="172" height="124" viewBox="0 0 172 124" fill="none" xmlns="http://www.w3.org/2000/svg">
<rect x="8" y="48" width="158" height="72" rx="3" fill="black"/>
<g clip-path="url(#clip0)">
<rect x="2" y="33" width="170" height="19" rx="3" fill="black"/>
<rect width="22.8699" height="30.7477" transform="matrix(0.90531 0.424752 -0.27173 0.962374 133.296 23)" fill="white"/>
<rect width="22.8699" height="30.7477" transform="matrix(0.90531 0.424752 -0.27173 0.962374 104.038 23)" fill="white"/>
<rect width="22.8699" height="30.7477" transform="matrix(0.90531 0.424752 -0.27173 0.962374 75.3352 23)" fill="white"/>
<rect width="22.8699" height="30.7477" transform="matrix(0.90531 0.424752 -0.27173 0.962374 46.355 23)" fill="white"/>
</g>
<g clip-path="url(#clip1)">
<rect y="18.6835" width="170" height="19" rx="4" transform="rotate(-6.3097 0 18.6835)" fill="black"/>
<rect width="22.8699" height="30.7477" rx="4" transform="matrix(0.97366 -0.228006 0.383448 0.923563 120.669 1.57764)" fill="white"/>
<rect width="22.8699" height="30.7477" rx="4" transform="matrix(0.97366 -0.228006 0.383448 0.923563 91.5894 4.79309)" fill="white"/>
<rect width="22.8699" height="30.7477" rx="4" transform="matrix(0.97366 -0.228006 0.383448 0.923563 63.0601 7.94763)" fill="white"/>
<rect width="22.8699" height="30.7477" rx="4" transform="matrix(0.97366 -0.228006 0.383448 0.923563 34.2555 11.1326)" fill="white"/>
</g>
<path d="M32.1013 93.6475C32.0483 94.284 31.8361 94.7613 31.4648 95.0796C31.0936 95.3978 30.656 95.5569 30.1521 95.5569C29.7013 95.5569 29.277 95.411 28.8792 95.1193C28.4814 94.8276 28.2427 94.3901 28.1632 93.8066V71.968C28.2958 71.4376 28.5344 71.0398 28.8792 70.7746C29.2239 70.4829 29.6217 70.337 30.0726 70.337C30.5234 70.337 30.9212 70.4696 31.2659 70.7348C31.6372 70.9735 31.9157 71.3448 32.1013 71.8486V80.4011C33.4007 79.4994 34.5676 78.916 35.6018 78.6508C36.6626 78.3856 37.7499 78.4387 38.8637 78.8099C39.6858 79.0486 40.3886 79.4464 40.972 80.0033C41.5554 80.5337 42.0328 81.1569 42.4041 81.8729C42.8018 82.5624 43.0936 83.305 43.2792 84.1006C43.4913 84.8961 43.6107 85.6652 43.6372 86.4077C43.6372 87.6541 43.6372 88.6751 43.6372 89.4707C43.6372 90.2663 43.6372 90.9425 43.6372 91.4994C43.6372 92.0298 43.6372 92.4674 43.6372 92.8122C43.6637 93.1569 43.677 93.4884 43.677 93.8066C43.6239 94.4431 43.4118 94.9204 43.0405 95.2387C42.6958 95.5569 42.2715 95.716 41.7676 95.716C41.3168 95.716 40.8925 95.5702 40.4947 95.2785C40.0969 94.9867 39.8582 94.5359 39.7786 93.926C39.7786 92.6796 39.7786 91.4597 39.7786 90.2663C39.7786 89.0464 39.7654 87.8 39.7389 86.5271C39.6858 85.6785 39.5002 84.8564 39.182 84.0608C38.8902 83.2652 38.3996 82.642 37.7101 82.1912C37.1797 82.0851 36.6759 82.1116 36.1985 82.2707C35.7477 82.4298 35.2969 82.695 34.846 83.0663C34.3952 83.4111 33.9444 83.8486 33.4936 84.379C33.0427 84.9094 32.5786 85.4663 32.1013 86.0497V93.6475ZM52.3605 93.6077C52.334 94.2707 52.1219 94.7613 51.7241 95.0796C51.3263 95.3978 50.8887 95.5569 50.4114 95.5569C49.934 95.5569 49.5097 95.411 49.1384 95.1193C48.7672 94.8276 48.5418 94.3768 48.4622 93.7669L48.3429 78.6508C48.4755 78.0939 48.7141 77.6829 49.0589 77.4177C49.4036 77.126 49.8147 76.9801 50.292 76.9801C50.7163 76.9801 51.1141 77.1127 51.4854 77.3779C51.8567 77.6166 52.1086 78.0011 52.2412 78.5315L52.3605 93.6077ZM48.0644 72.326C48.0644 71.716 48.2766 71.1989 48.7009 70.7746C49.1517 70.3238 49.6821 70.0983 50.292 70.0983C50.9285 70.0983 51.4589 70.3238 51.8832 70.7746C52.334 71.1989 52.5594 71.716 52.5594 72.326C52.5594 72.9359 52.334 73.453 51.8832 73.8773C51.4589 74.3017 50.9285 74.5138 50.292 74.5138C49.6821 74.5138 49.1517 74.3017 48.7009 73.8773C48.2766 73.453 48.0644 72.9359 48.0644 72.326ZM56.0302 92.0564C55.6589 91.2873 55.6456 90.6508 55.9904 90.147C56.3616 89.6166 56.892 89.3514 57.5815 89.3514C58.0324 89.3514 58.523 89.5238 59.0534 89.8685C59.6103 90.6111 60.2732 91.2343 61.0423 91.7381C61.8114 92.242 62.6202 92.4144 63.4688 92.2552C63.8666 92.1757 64.2114 92.0298 64.5031 91.8177C64.8213 91.579 65.0467 91.3138 65.1793 91.0221C65.3384 90.7304 65.418 90.4122 65.418 90.0674C65.418 89.7227 65.3252 89.4044 65.1395 89.1127C64.9009 88.7414 64.6357 88.4497 64.344 88.2376C64.0788 88.0254 63.7871 87.8663 63.4688 87.7602C63.1771 87.6541 62.8854 87.5746 62.5937 87.5215C62.3285 87.4685 62.0766 87.4022 61.8379 87.3227C61.4401 87.2166 61.0423 87.1105 60.6445 87.0044C60.2467 86.8718 59.8622 86.7127 59.4909 86.5271C59.1197 86.3414 58.7616 86.116 58.4169 85.8508C58.0721 85.5591 57.7406 85.2011 57.4224 84.7768C57.1307 84.379 56.9053 83.9547 56.7462 83.5039C56.5871 83.0265 56.5075 82.589 56.5075 82.1912C56.5075 81.6343 56.6136 81.0641 56.8257 80.4807C57.0379 79.8972 57.3163 79.3669 57.6611 78.8895C58.0324 78.3856 58.4567 77.9613 58.934 77.6166C59.4379 77.2453 59.9683 76.9934 60.5252 76.8608C61.639 76.5691 62.7926 76.5293 63.986 76.7414C65.2058 76.9536 66.2931 77.3249 67.2478 77.8552C67.6191 78.1204 67.8976 78.3989 68.0832 78.6906C68.2688 78.9823 68.3616 79.2608 68.3616 79.526C68.3616 79.8442 68.2688 80.1359 68.0832 80.4011C67.9241 80.6398 67.6987 80.8387 67.4069 80.9978C67.1418 81.1569 66.8235 81.2365 66.4523 81.2365C66.1075 81.2365 65.7362 81.1304 65.3384 80.9182C65.0202 80.7591 64.5694 80.6133 63.986 80.4807C63.429 80.3215 62.8721 80.2685 62.3152 80.3215C61.7583 80.3481 61.2942 80.5204 60.923 80.8387C60.5517 81.1569 60.4058 81.6873 60.4854 82.4298C60.6445 82.7215 60.8302 82.9735 61.0423 83.1856C61.281 83.3713 61.5329 83.5304 61.7981 83.663C62.0898 83.7956 62.3948 83.9149 62.713 84.021C63.0313 84.1006 63.3362 84.1801 63.6279 84.2597C64.45 84.4983 65.2058 84.7768 65.8953 85.095C66.5848 85.3867 67.1815 85.758 67.6854 86.2088C68.1893 86.6597 68.5738 87.2033 68.839 87.8398C69.1307 88.4762 69.2766 89.2453 69.2766 90.147C69.2766 90.863 69.1174 91.5657 68.7992 92.2552C68.481 92.9182 68.0567 93.5149 67.5263 94.0453C67.0224 94.5757 66.439 95 65.776 95.3182C65.113 95.6365 64.45 95.7956 63.7871 95.7956C62.302 95.7956 60.8567 95.4641 59.4511 94.8011C58.0456 94.1381 56.9185 93.2232 56.0699 92.0564H56.0302ZM73.4711 81.2365C72.8081 81.1304 72.3042 80.9182 71.9595 80.6C71.6412 80.2818 71.4821 79.9105 71.4821 79.4862C71.4821 79.0619 71.6545 78.6641 71.9992 78.2928C72.3705 77.9215 72.9142 77.7359 73.6302 77.7359H75.46V71.6497C75.5926 71.0928 75.8313 70.6818 76.176 70.4166C76.5473 70.1249 76.9584 69.979 77.4092 69.979C77.8335 69.979 78.2313 70.1116 78.6026 70.3768C78.9738 70.6155 79.2258 71 79.3584 71.5304V77.7359H82.8589C83.4423 77.895 83.8666 78.1337 84.1318 78.4519C84.4236 78.7702 84.5694 79.1149 84.5694 79.4862C84.5694 80.3348 83.9595 80.9182 82.7396 81.2365H79.3584V88.5558C79.3584 89.3779 79.3584 90.2 79.3584 91.0221C79.3849 91.8442 79.3981 92.6663 79.3981 93.4884C79.3981 94.1514 79.186 94.642 78.7617 94.9602C78.3374 95.2785 77.8998 95.4376 77.449 95.4376C76.9981 95.4376 76.5738 95.2917 76.176 95C75.8048 94.7083 75.5794 94.2575 75.4998 93.6475C75.4998 92.6398 75.4865 91.6055 75.46 90.5448C75.46 89.4575 75.46 88.3834 75.46 87.3227V81.2365H73.4711ZM93.951 77.6564C95.0648 77.6564 96.046 77.895 96.8946 78.3724C97.7698 78.8497 98.4991 79.4862 99.0825 80.2818C99.6924 81.0508 100.143 81.9392 100.435 82.947C100.753 83.9282 100.912 84.9359 100.912 85.9702C100.912 86.421 100.886 86.8453 100.833 87.2431C100.78 87.6144 100.713 87.9989 100.634 88.3967C100.342 89.484 99.9046 90.505 99.3212 91.4597C98.7643 92.4144 98.1013 93.2497 97.3322 93.9657C96.5632 94.6552 95.7013 95.1989 94.7466 95.5967C93.8184 95.9945 92.8372 96.1934 91.8029 96.1934C90.7156 96.1934 89.7212 95.9547 88.8195 95.4773C87.9444 95 87.2018 94.3901 86.5919 93.6475C85.9819 92.8785 85.5046 92.0298 85.1598 91.1017C84.8416 90.147 84.6825 89.1923 84.6825 88.2376C84.6825 86.9116 84.9212 85.6254 85.3985 84.379C85.9024 83.1061 86.5654 81.979 87.3875 80.9978C88.2361 79.9901 89.2173 79.1812 90.3311 78.5713C91.4714 77.9613 92.6781 77.6564 93.951 77.6564ZM88.8195 86.2088C88.6604 86.8188 88.5808 87.495 88.5808 88.2376C88.5808 88.9801 88.6869 89.6829 88.8991 90.3459C89.1112 90.9823 89.456 91.526 89.9333 91.9768C90.4372 92.4276 91.1002 92.653 91.9223 92.653C92.7179 92.653 93.4206 92.4276 94.0306 91.9768C94.667 91.4994 95.1974 90.9293 95.6217 90.2663C96.0725 89.5768 96.4173 88.8475 96.656 88.0785C96.8946 87.2829 97.014 86.5669 97.014 85.9304C97.014 85.347 96.9477 84.7768 96.8151 84.2199C96.6825 83.6365 96.4703 83.1193 96.1786 82.6685C95.9134 82.2177 95.5819 81.8597 95.1842 81.5945C94.7864 81.3028 94.3355 81.1569 93.8317 81.1569C93.1952 81.1569 92.5985 81.3293 92.0416 81.674C91.4847 81.9923 90.9808 82.4033 90.53 82.9072C90.1057 83.3845 89.7477 83.9282 89.456 84.5381C89.1643 85.1215 88.9521 85.6785 88.8195 86.2088ZM104.737 81.3956C104.233 81.1039 103.875 80.8254 103.663 80.5602C103.477 80.2685 103.385 79.9635 103.385 79.6453C103.385 79.1945 103.557 78.8099 103.902 78.4917C104.273 78.1735 104.75 78.0144 105.334 78.0144C105.732 78.0144 106.182 78.1204 106.686 78.3326C107.217 78.5448 107.654 78.7967 107.999 79.0884C108.821 78.4254 109.643 77.895 110.465 77.4972C111.314 77.0994 112.202 76.9006 113.131 76.9006C113.396 76.9006 113.793 76.9669 114.324 77.0994C114.881 77.232 115.411 77.4442 115.915 77.7359C116.445 78.0011 116.91 78.3591 117.307 78.8099C117.705 79.2343 117.904 79.7381 117.904 80.3215C117.904 80.7989 117.718 81.1967 117.347 81.5149C117.002 81.8066 116.578 81.9525 116.074 81.9525C115.703 81.9525 115.398 81.8729 115.159 81.7138C114.921 81.5547 114.682 81.3691 114.443 81.1569C114.258 80.9713 114.032 80.7989 113.767 80.6398C113.528 80.4541 113.303 80.3613 113.091 80.3613C112.799 80.3613 112.454 80.4674 112.056 80.6796C111.659 80.8917 111.261 81.1436 110.863 81.4354C110.465 81.7271 110.068 82.0586 109.67 82.4298C109.298 82.7746 108.98 83.0796 108.715 83.3448V93.7669C108.689 94.4298 108.463 94.9204 108.039 95.2387C107.641 95.5569 107.217 95.716 106.766 95.716C106.289 95.716 105.864 95.5569 105.493 95.2387C105.122 94.947 104.896 94.4961 104.817 93.8862V81.4354L104.737 81.3956ZM124.818 93.6077C124.791 94.2707 124.579 94.7613 124.181 95.0796C123.783 95.3978 123.346 95.5569 122.868 95.5569C122.391 95.5569 121.967 95.411 121.595 95.1193C121.224 94.8276 120.999 94.3768 120.919 93.7669L120.8 78.6508C120.932 78.0939 121.171 77.6829 121.516 77.4177C121.861 77.126 122.272 76.9801 122.749 76.9801C123.173 76.9801 123.571 77.1127 123.942 77.3779C124.314 77.6166 124.566 78.0011 124.698 78.5315L124.818 93.6077ZM120.521 72.326C120.521 71.716 120.734 71.1989 121.158 70.7746C121.609 70.3238 122.139 70.0983 122.749 70.0983C123.386 70.0983 123.916 70.3238 124.34 70.7746C124.791 71.1989 125.016 71.716 125.016 72.326C125.016 72.9359 124.791 73.453 124.34 73.8773C123.916 74.3017 123.386 74.5138 122.749 74.5138C122.139 74.5138 121.609 74.3017 121.158 73.8773C120.734 73.453 120.521 72.9359 120.521 72.326ZM144.744 93.1304C144.903 93.5282 144.929 93.9127 144.823 94.284C144.744 94.6287 144.558 94.9072 144.266 95.1193C144.001 95.358 143.656 95.4906 143.232 95.5171C142.808 95.5702 142.357 95.4773 141.88 95.2387C141.668 95.0265 141.455 94.8144 141.243 94.6022C141.058 94.3635 140.898 94.1381 140.766 93.926C139.811 94.642 138.91 95.0928 138.061 95.2785C137.239 95.4906 136.337 95.5967 135.356 95.5967C134.64 95.5967 133.937 95.5171 133.248 95.358C132.585 95.2254 131.908 94.9337 131.219 94.4829C130.211 93.7669 129.495 92.9182 129.071 91.937C128.647 90.9558 128.434 89.9215 128.434 88.8343C128.434 87.7204 128.594 86.6729 128.912 85.6917C129.256 84.684 129.721 83.7558 130.304 82.9072C130.887 82.032 131.55 81.2365 132.293 80.5204C133.062 79.8044 133.884 79.168 134.759 78.6111C134.945 78.505 135.197 78.3856 135.515 78.253C135.86 78.1204 136.244 78.0011 136.669 77.895C137.093 77.7624 137.531 77.6696 137.981 77.6166C138.432 77.537 138.87 77.4972 139.294 77.4972C140.116 77.4972 140.845 77.6033 141.482 77.8155C142.145 78.0011 142.622 78.4785 142.914 79.2475C142.914 80.0431 142.914 80.7061 142.914 81.2365C142.914 81.7669 142.901 82.2177 142.874 82.589C142.874 82.9337 142.874 83.2254 142.874 83.4641C142.874 83.7028 142.874 83.9282 142.874 84.1403C142.874 85.0685 142.901 86.0365 142.954 87.0442C143.007 88.0254 143.1 88.9934 143.232 89.9481C143.285 90.2398 143.405 90.5845 143.59 90.9823C143.802 91.3801 144.015 91.7381 144.227 92.0564H144.187C144.373 92.3481 144.518 92.5867 144.624 92.7724C144.757 92.958 144.797 93.0773 144.744 93.1304ZM139.374 90.3061C139.161 89.3779 139.029 88.4232 138.976 87.442C138.923 86.4343 138.896 85.4398 138.896 84.4586C138.896 83.7691 138.91 83.1459 138.936 82.589C138.963 82.032 138.976 81.4884 138.976 80.958C138.525 81.0111 138.061 81.1304 137.584 81.316C137.133 81.5017 136.814 81.6343 136.629 81.7138C135.913 82.032 135.263 82.4829 134.68 83.0663C134.123 83.6497 133.659 84.2994 133.287 85.0155C132.916 85.7315 132.638 86.4873 132.452 87.2829C132.293 88.0519 132.28 88.8077 132.412 89.5503C132.492 90.1337 132.691 90.6243 133.009 91.0221C133.354 91.3934 133.752 91.6851 134.202 91.8972C134.653 92.0829 135.131 92.1757 135.634 92.1757C136.165 92.1757 136.669 92.0961 137.146 91.937C137.729 91.5923 138.472 91.0486 139.374 90.3061Z" fill="white"/>
<defs>
<clipPath id="clip0">
<rect x="2" y="33" width="170" height="19" fill="white"/>
</clipPath>
<clipPath id="clip1">
<rect y="18.6835" width="170" height="19" transform="rotate(-6.3097 0 18.6835)" fill="white"/>
</clipPath>
</defs>
</svg>
