<svg width="320" height="414" viewBox="0 0 320 414" fill="none" xmlns="http://www.w3.org/2000/svg">
<rect width="320" height="414" fill="black"/>
<rect width="25" height="42" transform="translate(289 186)" fill="white"/>
<rect width="25" height="42" transform="translate(289 245)" fill="white"/>
<g clip-path="url(#clip0)">
<rect width="25" height="42" transform="translate(289 304)" fill="white"/>
<rect width="25" height="42" transform="translate(289 305)" fill="white"/>
</g>
<g clip-path="url(#clip1)">
<rect width="25" height="42" transform="translate(289 363)" fill="white"/>
<rect width="25" height="42" transform="translate(289 364)" fill="white"/>
</g>
<g clip-path="url(#clip2)">
<rect width="245" height="255" transform="translate(37 141)" fill="white"/>
<path d="M44.096 157.652V159.254C44.51 159.236 45.41 159.2 46.076 159.2H54.698V167.696H45.86C45.104 167.696 44.33 167.642 43.862 167.588V169.226C44.348 169.19 45.158 169.154 45.896 169.154H54.698C54.68 169.586 54.68 169.964 54.662 170.162H56.282C56.264 169.874 56.21 169.064 56.21 168.416V159.128C56.21 158.696 56.246 158.138 56.264 157.724C55.904 157.742 55.364 157.76 54.932 157.76H46.058C45.482 157.76 44.69 157.724 44.096 157.652ZM73.58 156.896L71.924 156.32C71.852 156.716 71.69 157.292 71.564 157.652C71.024 159.182 70.286 160.892 69.116 162.566C67.694 161.468 65.606 159.992 64.058 159.002L63.122 160.136C64.85 161.216 66.866 162.692 68.198 163.772C66.416 165.95 64.202 167.948 61.052 169.424L62.294 170.558C65.426 168.92 67.658 166.778 69.35 164.744C70.898 166.076 72.266 167.354 73.598 168.884L74.732 167.642C73.454 166.256 71.906 164.852 70.286 163.52C71.492 161.774 72.392 159.794 72.986 158.21C73.13 157.832 73.382 157.22 73.58 156.896ZM81.086 156.806L80.06 157.904C81.392 158.804 83.642 160.73 84.542 161.666L85.676 160.532C84.668 159.524 82.364 157.652 81.086 156.806ZM79.538 168.866L80.492 170.342C83.498 169.784 85.766 168.686 87.566 167.552C90.284 165.842 92.39 163.394 93.614 161.144L92.75 159.614C91.706 161.828 89.51 164.492 86.738 166.238C85.028 167.3 82.688 168.398 79.538 168.866ZM101.066 168.416C101.066 169.082 101.03 169.964 100.94 170.54H102.686C102.614 169.946 102.578 168.974 102.578 168.416C102.578 167.894 102.578 165.176 102.56 162.476C104.558 163.106 107.672 164.312 109.634 165.374L110.246 163.844C108.356 162.89 104.936 161.594 102.56 160.874C102.56 159.74 102.56 158.696 102.56 157.94C102.56 157.4 102.632 156.626 102.686 156.068H100.922C101.03 156.626 101.066 157.436 101.066 157.94V168.416ZM116.096 157.652V159.254C116.51 159.236 117.41 159.2 118.076 159.2H126.698V167.696H117.86C117.104 167.696 116.33 167.642 115.862 167.588V169.226C116.348 169.19 117.158 169.154 117.896 169.154H126.698C126.68 169.586 126.68 169.964 126.662 170.162H128.282C128.264 169.874 128.21 169.064 128.21 168.416V159.128C128.21 158.696 128.246 158.138 128.264 157.724C127.904 157.742 127.364 157.76 126.932 157.76H118.058C117.482 157.76 116.69 157.724 116.096 157.652ZM145.58 156.896L143.924 156.32C143.852 156.716 143.69 157.292 143.564 157.652C143.024 159.182 142.286 160.892 141.116 162.566C139.694 161.468 137.606 159.992 136.058 159.002L135.122 160.136C136.85 161.216 138.866 162.692 140.198 163.772C138.416 165.95 136.202 167.948 133.052 169.424L134.294 170.558C137.426 168.92 139.658 166.778 141.35 164.744C142.898 166.076 144.266 167.354 145.598 168.884L146.732 167.642C145.454 166.256 143.906 164.852 142.286 163.52C143.492 161.774 144.392 159.794 144.986 158.21C145.13 157.832 145.382 157.22 145.58 156.896ZM153.086 156.806L152.06 157.904C153.392 158.804 155.642 160.73 156.542 161.666L157.676 160.532C156.668 159.524 154.364 157.652 153.086 156.806ZM151.538 168.866L152.492 170.342C155.498 169.784 157.766 168.686 159.566 167.552C162.284 165.842 164.39 163.394 165.614 161.144L164.75 159.614C163.706 161.828 161.51 164.492 158.738 166.238C157.028 167.3 154.688 168.398 151.538 168.866ZM173.066 168.416C173.066 169.082 173.03 169.964 172.94 170.54H174.686C174.614 169.946 174.578 168.974 174.578 168.416C174.578 167.894 174.578 165.176 174.56 162.476C176.558 163.106 179.672 164.312 181.634 165.374L182.246 163.844C180.356 162.89 176.936 161.594 174.56 160.874C174.56 159.74 174.56 158.696 174.56 157.94C174.56 157.4 174.632 156.626 174.686 156.068H172.922C173.03 156.626 173.066 157.436 173.066 157.94V168.416ZM188.096 157.652V159.254C188.51 159.236 189.41 159.2 190.076 159.2H198.698V167.696H189.86C189.104 167.696 188.33 167.642 187.862 167.588V169.226C188.348 169.19 189.158 169.154 189.896 169.154H198.698C198.68 169.586 198.68 169.964 198.662 170.162H200.282C200.264 169.874 200.21 169.064 200.21 168.416V159.128C200.21 158.696 200.246 158.138 200.264 157.724C199.904 157.742 199.364 157.76 198.932 157.76H190.058C189.482 157.76 188.69 157.724 188.096 157.652ZM217.58 156.896L215.924 156.32C215.852 156.716 215.69 157.292 215.564 157.652C215.024 159.182 214.286 160.892 213.116 162.566C211.694 161.468 209.606 159.992 208.058 159.002L207.122 160.136C208.85 161.216 210.866 162.692 212.198 163.772C210.416 165.95 208.202 167.948 205.052 169.424L206.294 170.558C209.426 168.92 211.658 166.778 213.35 164.744C214.898 166.076 216.266 167.354 217.598 168.884L218.732 167.642C217.454 166.256 215.906 164.852 214.286 163.52C215.492 161.774 216.392 159.794 216.986 158.21C217.13 157.832 217.382 157.22 217.58 156.896ZM225.086 156.806L224.06 157.904C225.392 158.804 227.642 160.73 228.542 161.666L229.676 160.532C228.668 159.524 226.364 157.652 225.086 156.806ZM223.538 168.866L224.492 170.342C227.498 169.784 229.766 168.686 231.566 167.552C234.284 165.842 236.39 163.394 237.614 161.144L236.75 159.614C235.706 161.828 233.51 164.492 230.738 166.238C229.028 167.3 226.688 168.398 223.538 168.866ZM245.066 168.416C245.066 169.082 245.03 169.964 244.94 170.54H246.686C246.614 169.946 246.578 168.974 246.578 168.416C246.578 167.894 246.578 165.176 246.56 162.476C248.558 163.106 251.672 164.312 253.634 165.374L254.246 163.844C252.356 162.89 248.936 161.594 246.56 160.874C246.56 159.74 246.56 158.696 246.56 157.94C246.56 157.4 246.632 156.626 246.686 156.068H244.922C245.03 156.626 245.066 157.436 245.066 157.94V168.416ZM260.096 157.652V159.254C260.51 159.236 261.41 159.2 262.076 159.2H270.698V167.696H261.86C261.104 167.696 260.33 167.642 259.862 167.588V169.226C260.348 169.19 261.158 169.154 261.896 169.154H270.698C270.68 169.586 270.68 169.964 270.662 170.162H272.282C272.264 169.874 272.21 169.064 272.21 168.416V159.128C272.21 158.696 272.246 158.138 272.264 157.724C271.904 157.742 271.364 157.76 270.932 157.76H262.058C261.482 157.76 260.69 157.724 260.096 157.652ZM55.58 177.896L53.924 177.32C53.852 177.716 53.69 178.292 53.564 178.652C53.024 180.182 52.286 181.892 51.116 183.566C49.694 182.468 47.606 180.992 46.058 180.002L45.122 181.136C46.85 182.216 48.866 183.692 50.198 184.772C48.416 186.95 46.202 188.948 43.052 190.424L44.294 191.558C47.426 189.92 49.658 187.778 51.35 185.744C52.898 187.076 54.266 188.354 55.598 189.884L56.732 188.642C55.454 187.256 53.906 185.852 52.286 184.52C53.492 182.774 54.392 180.794 54.986 179.21C55.13 178.832 55.382 178.22 55.58 177.896ZM63.086 177.806L62.06 178.904C63.392 179.804 65.642 181.73 66.542 182.666L67.676 181.532C66.668 180.524 64.364 178.652 63.086 177.806ZM61.538 189.866L62.492 191.342C65.498 190.784 67.766 189.686 69.566 188.552C72.284 186.842 74.39 184.394 75.614 182.144L74.75 180.614C73.706 182.828 71.51 185.492 68.738 187.238C67.028 188.3 64.688 189.398 61.538 189.866ZM83.066 189.416C83.066 190.082 83.03 190.964 82.94 191.54H84.686C84.614 190.946 84.578 189.974 84.578 189.416C84.578 188.894 84.578 186.176 84.56 183.476C86.558 184.106 89.672 185.312 91.634 186.374L92.246 184.844C90.356 183.89 86.936 182.594 84.56 181.874C84.56 180.74 84.56 179.696 84.56 178.94C84.56 178.4 84.632 177.626 84.686 177.068H82.922C83.03 177.626 83.066 178.436 83.066 178.94V189.416ZM98.096 178.652V180.254C98.51 180.236 99.41 180.2 100.076 180.2H108.698V188.696H99.86C99.104 188.696 98.33 188.642 97.862 188.588V190.226C98.348 190.19 99.158 190.154 99.896 190.154H108.698C108.68 190.586 108.68 190.964 108.662 191.162H110.282C110.264 190.874 110.21 190.064 110.21 189.416V180.128C110.21 179.696 110.246 179.138 110.264 178.724C109.904 178.742 109.364 178.76 108.932 178.76H100.058C99.482 178.76 98.69 178.724 98.096 178.652ZM127.58 177.896L125.924 177.32C125.852 177.716 125.69 178.292 125.564 178.652C125.024 180.182 124.286 181.892 123.116 183.566C121.694 182.468 119.606 180.992 118.058 180.002L117.122 181.136C118.85 182.216 120.866 183.692 122.198 184.772C120.416 186.95 118.202 188.948 115.052 190.424L116.294 191.558C119.426 189.92 121.658 187.778 123.35 185.744C124.898 187.076 126.266 188.354 127.598 189.884L128.732 188.642C127.454 187.256 125.906 185.852 124.286 184.52C125.492 182.774 126.392 180.794 126.986 179.21C127.13 178.832 127.382 178.22 127.58 177.896ZM135.086 177.806L134.06 178.904C135.392 179.804 137.642 181.73 138.542 182.666L139.676 181.532C138.668 180.524 136.364 178.652 135.086 177.806ZM133.538 189.866L134.492 191.342C137.498 190.784 139.766 189.686 141.566 188.552C144.284 186.842 146.39 184.394 147.614 182.144L146.75 180.614C145.706 182.828 143.51 185.492 140.738 187.238C139.028 188.3 136.688 189.398 133.538 189.866ZM155.066 189.416C155.066 190.082 155.03 190.964 154.94 191.54H156.686C156.614 190.946 156.578 189.974 156.578 189.416C156.578 188.894 156.578 186.176 156.56 183.476C158.558 184.106 161.672 185.312 163.634 186.374L164.246 184.844C162.356 183.89 158.936 182.594 156.56 181.874C156.56 180.74 156.56 179.696 156.56 178.94C156.56 178.4 156.632 177.626 156.686 177.068H154.922C155.03 177.626 155.066 178.436 155.066 178.94V189.416ZM170.096 178.652V180.254C170.51 180.236 171.41 180.2 172.076 180.2H180.698V188.696H171.86C171.104 188.696 170.33 188.642 169.862 188.588V190.226C170.348 190.19 171.158 190.154 171.896 190.154H180.698C180.68 190.586 180.68 190.964 180.662 191.162H182.282C182.264 190.874 182.21 190.064 182.21 189.416V180.128C182.21 179.696 182.246 179.138 182.264 178.724C181.904 178.742 181.364 178.76 180.932 178.76H172.058C171.482 178.76 170.69 178.724 170.096 178.652ZM199.58 177.896L197.924 177.32C197.852 177.716 197.69 178.292 197.564 178.652C197.024 180.182 196.286 181.892 195.116 183.566C193.694 182.468 191.606 180.992 190.058 180.002L189.122 181.136C190.85 182.216 192.866 183.692 194.198 184.772C192.416 186.95 190.202 188.948 187.052 190.424L188.294 191.558C191.426 189.92 193.658 187.778 195.35 185.744C196.898 187.076 198.266 188.354 199.598 189.884L200.732 188.642C199.454 187.256 197.906 185.852 196.286 184.52C197.492 182.774 198.392 180.794 198.986 179.21C199.13 178.832 199.382 178.22 199.58 177.896ZM207.086 177.806L206.06 178.904C207.392 179.804 209.642 181.73 210.542 182.666L211.676 181.532C210.668 180.524 208.364 178.652 207.086 177.806ZM205.538 189.866L206.492 191.342C209.498 190.784 211.766 189.686 213.566 188.552C216.284 186.842 218.39 184.394 219.614 182.144L218.75 180.614C217.706 182.828 215.51 185.492 212.738 187.238C211.028 188.3 208.688 189.398 205.538 189.866ZM227.066 189.416C227.066 190.082 227.03 190.964 226.94 191.54H228.686C228.614 190.946 228.578 189.974 228.578 189.416C228.578 188.894 228.578 186.176 228.56 183.476C230.558 184.106 233.672 185.312 235.634 186.374L236.246 184.844C234.356 183.89 230.936 182.594 228.56 181.874C228.56 180.74 228.56 179.696 228.56 178.94C228.56 178.4 228.632 177.626 228.686 177.068H226.922C227.03 177.626 227.066 178.436 227.066 178.94V189.416ZM242.096 178.652V180.254C242.51 180.236 243.41 180.2 244.076 180.2H252.698V188.696H243.86C243.104 188.696 242.33 188.642 241.862 188.588V190.226C242.348 190.19 243.158 190.154 243.896 190.154H252.698C252.68 190.586 252.68 190.964 252.662 191.162H254.282C254.264 190.874 254.21 190.064 254.21 189.416V180.128C254.21 179.696 254.246 179.138 254.264 178.724C253.904 178.742 253.364 178.76 252.932 178.76H244.058C243.482 178.76 242.69 178.724 242.096 178.652ZM271.58 177.896L269.924 177.32C269.852 177.716 269.69 178.292 269.564 178.652C269.024 180.182 268.286 181.892 267.116 183.566C265.694 182.468 263.606 180.992 262.058 180.002L261.122 181.136C262.85 182.216 264.866 183.692 266.198 184.772C264.416 186.95 262.202 188.948 259.052 190.424L260.294 191.558C263.426 189.92 265.658 187.778 267.35 185.744C268.898 187.076 270.266 188.354 271.598 189.884L272.732 188.642C271.454 187.256 269.906 185.852 268.286 184.52C269.492 182.774 270.392 180.794 270.986 179.21C271.13 178.832 271.382 178.22 271.58 177.896ZM45.086 198.806L44.06 199.904C45.392 200.804 47.642 202.73 48.542 203.666L49.676 202.532C48.668 201.524 46.364 199.652 45.086 198.806ZM43.538 210.866L44.492 212.342C47.498 211.784 49.766 210.686 51.566 209.552C54.284 207.842 56.39 205.394 57.614 203.144L56.75 201.614C55.706 203.828 53.51 206.492 50.738 208.238C49.028 209.3 46.688 210.398 43.538 210.866ZM65.066 210.416C65.066 211.082 65.03 211.964 64.94 212.54H66.686C66.614 211.946 66.578 210.974 66.578 210.416C66.578 209.894 66.578 207.176 66.56 204.476C68.558 205.106 71.672 206.312 73.634 207.374L74.246 205.844C72.356 204.89 68.936 203.594 66.56 202.874C66.56 201.74 66.56 200.696 66.56 199.94C66.56 199.4 66.632 198.626 66.686 198.068H64.922C65.03 198.626 65.066 199.436 65.066 199.94V210.416ZM80.096 199.652V201.254C80.51 201.236 81.41 201.2 82.076 201.2H90.698V209.696H81.86C81.104 209.696 80.33 209.642 79.862 209.588V211.226C80.348 211.19 81.158 211.154 81.896 211.154H90.698C90.68 211.586 90.68 211.964 90.662 212.162H92.282C92.264 211.874 92.21 211.064 92.21 210.416V201.128C92.21 200.696 92.246 200.138 92.264 199.724C91.904 199.742 91.364 199.76 90.932 199.76H82.058C81.482 199.76 80.69 199.724 80.096 199.652ZM109.58 198.896L107.924 198.32C107.852 198.716 107.69 199.292 107.564 199.652C107.024 201.182 106.286 202.892 105.116 204.566C103.694 203.468 101.606 201.992 100.058 201.002L99.122 202.136C100.85 203.216 102.866 204.692 104.198 205.772C102.416 207.95 100.202 209.948 97.052 211.424L98.294 212.558C101.426 210.92 103.658 208.778 105.35 206.744C106.898 208.076 108.266 209.354 109.598 210.884L110.732 209.642C109.454 208.256 107.906 206.852 106.286 205.52C107.492 203.774 108.392 201.794 108.986 200.21C109.13 199.832 109.382 199.22 109.58 198.896ZM117.086 198.806L116.06 199.904C117.392 200.804 119.642 202.73 120.542 203.666L121.676 202.532C120.668 201.524 118.364 199.652 117.086 198.806ZM115.538 210.866L116.492 212.342C119.498 211.784 121.766 210.686 123.566 209.552C126.284 207.842 128.39 205.394 129.614 203.144L128.75 201.614C127.706 203.828 125.51 206.492 122.738 208.238C121.028 209.3 118.688 210.398 115.538 210.866ZM137.066 210.416C137.066 211.082 137.03 211.964 136.94 212.54H138.686C138.614 211.946 138.578 210.974 138.578 210.416C138.578 209.894 138.578 207.176 138.56 204.476C140.558 205.106 143.672 206.312 145.634 207.374L146.246 205.844C144.356 204.89 140.936 203.594 138.56 202.874C138.56 201.74 138.56 200.696 138.56 199.94C138.56 199.4 138.632 198.626 138.686 198.068H136.922C137.03 198.626 137.066 199.436 137.066 199.94V210.416ZM152.096 199.652V201.254C152.51 201.236 153.41 201.2 154.076 201.2H162.698V209.696H153.86C153.104 209.696 152.33 209.642 151.862 209.588V211.226C152.348 211.19 153.158 211.154 153.896 211.154H162.698C162.68 211.586 162.68 211.964 162.662 212.162H164.282C164.264 211.874 164.21 211.064 164.21 210.416V201.128C164.21 200.696 164.246 200.138 164.264 199.724C163.904 199.742 163.364 199.76 162.932 199.76H154.058C153.482 199.76 152.69 199.724 152.096 199.652ZM181.58 198.896L179.924 198.32C179.852 198.716 179.69 199.292 179.564 199.652C179.024 201.182 178.286 202.892 177.116 204.566C175.694 203.468 173.606 201.992 172.058 201.002L171.122 202.136C172.85 203.216 174.866 204.692 176.198 205.772C174.416 207.95 172.202 209.948 169.052 211.424L170.294 212.558C173.426 210.92 175.658 208.778 177.35 206.744C178.898 208.076 180.266 209.354 181.598 210.884L182.732 209.642C181.454 208.256 179.906 206.852 178.286 205.52C179.492 203.774 180.392 201.794 180.986 200.21C181.13 199.832 181.382 199.22 181.58 198.896ZM189.086 198.806L188.06 199.904C189.392 200.804 191.642 202.73 192.542 203.666L193.676 202.532C192.668 201.524 190.364 199.652 189.086 198.806ZM187.538 210.866L188.492 212.342C191.498 211.784 193.766 210.686 195.566 209.552C198.284 207.842 200.39 205.394 201.614 203.144L200.75 201.614C199.706 203.828 197.51 206.492 194.738 208.238C193.028 209.3 190.688 210.398 187.538 210.866ZM209.066 210.416C209.066 211.082 209.03 211.964 208.94 212.54H210.686C210.614 211.946 210.578 210.974 210.578 210.416C210.578 209.894 210.578 207.176 210.56 204.476C212.558 205.106 215.672 206.312 217.634 207.374L218.246 205.844C216.356 204.89 212.936 203.594 210.56 202.874C210.56 201.74 210.56 200.696 210.56 199.94C210.56 199.4 210.632 198.626 210.686 198.068H208.922C209.03 198.626 209.066 199.436 209.066 199.94V210.416ZM224.096 199.652V201.254C224.51 201.236 225.41 201.2 226.076 201.2H234.698V209.696H225.86C225.104 209.696 224.33 209.642 223.862 209.588V211.226C224.348 211.19 225.158 211.154 225.896 211.154H234.698C234.68 211.586 234.68 211.964 234.662 212.162H236.282C236.264 211.874 236.21 211.064 236.21 210.416V201.128C236.21 200.696 236.246 200.138 236.264 199.724C235.904 199.742 235.364 199.76 234.932 199.76H226.058C225.482 199.76 224.69 199.724 224.096 199.652ZM253.58 198.896L251.924 198.32C251.852 198.716 251.69 199.292 251.564 199.652C251.024 201.182 250.286 202.892 249.116 204.566C247.694 203.468 245.606 201.992 244.058 201.002L243.122 202.136C244.85 203.216 246.866 204.692 248.198 205.772C246.416 207.95 244.202 209.948 241.052 211.424L242.294 212.558C245.426 210.92 247.658 208.778 249.35 206.744C250.898 208.076 252.266 209.354 253.598 210.884L254.732 209.642C253.454 208.256 251.906 206.852 250.286 205.52C251.492 203.774 252.392 201.794 252.986 200.21C253.13 199.832 253.382 199.22 253.58 198.896ZM261.086 198.806L260.06 199.904C261.392 200.804 263.642 202.73 264.542 203.666L265.676 202.532C264.668 201.524 262.364 199.652 261.086 198.806ZM259.538 210.866L260.492 212.342C263.498 211.784 265.766 210.686 267.566 209.552C270.284 207.842 272.39 205.394 273.614 203.144L272.75 201.614C271.706 203.828 269.51 206.492 266.738 208.238C265.028 209.3 262.688 210.398 259.538 210.866ZM47.066 231.416C47.066 232.082 47.03 232.964 46.94 233.54H48.686C48.614 232.946 48.578 231.974 48.578 231.416C48.578 230.894 48.578 228.176 48.56 225.476C50.558 226.106 53.672 227.312 55.634 228.374L56.246 226.844C54.356 225.89 50.936 224.594 48.56 223.874C48.56 222.74 48.56 221.696 48.56 220.94C48.56 220.4 48.632 219.626 48.686 219.068H46.922C47.03 219.626 47.066 220.436 47.066 220.94V231.416ZM62.096 220.652V222.254C62.51 222.236 63.41 222.2 64.076 222.2H72.698V230.696H63.86C63.104 230.696 62.33 230.642 61.862 230.588V232.226C62.348 232.19 63.158 232.154 63.896 232.154H72.698C72.68 232.586 72.68 232.964 72.662 233.162H74.282C74.264 232.874 74.21 232.064 74.21 231.416V222.128C74.21 221.696 74.246 221.138 74.264 220.724C73.904 220.742 73.364 220.76 72.932 220.76H64.058C63.482 220.76 62.69 220.724 62.096 220.652ZM91.58 219.896L89.924 219.32C89.852 219.716 89.69 220.292 89.564 220.652C89.024 222.182 88.286 223.892 87.116 225.566C85.694 224.468 83.606 222.992 82.058 222.002L81.122 223.136C82.85 224.216 84.866 225.692 86.198 226.772C84.416 228.95 82.202 230.948 79.052 232.424L80.294 233.558C83.426 231.92 85.658 229.778 87.35 227.744C88.898 229.076 90.266 230.354 91.598 231.884L92.732 230.642C91.454 229.256 89.906 227.852 88.286 226.52C89.492 224.774 90.392 222.794 90.986 221.21C91.13 220.832 91.382 220.22 91.58 219.896ZM99.086 219.806L98.06 220.904C99.392 221.804 101.642 223.73 102.542 224.666L103.676 223.532C102.668 222.524 100.364 220.652 99.086 219.806ZM97.538 231.866L98.492 233.342C101.498 232.784 103.766 231.686 105.566 230.552C108.284 228.842 110.39 226.394 111.614 224.144L110.75 222.614C109.706 224.828 107.51 227.492 104.738 229.238C103.028 230.3 100.688 231.398 97.538 231.866ZM119.066 231.416C119.066 232.082 119.03 232.964 118.94 233.54H120.686C120.614 232.946 120.578 231.974 120.578 231.416C120.578 230.894 120.578 228.176 120.56 225.476C122.558 226.106 125.672 227.312 127.634 228.374L128.246 226.844C126.356 225.89 122.936 224.594 120.56 223.874C120.56 222.74 120.56 221.696 120.56 220.94C120.56 220.4 120.632 219.626 120.686 219.068H118.922C119.03 219.626 119.066 220.436 119.066 220.94V231.416ZM134.096 220.652V222.254C134.51 222.236 135.41 222.2 136.076 222.2H144.698V230.696H135.86C135.104 230.696 134.33 230.642 133.862 230.588V232.226C134.348 232.19 135.158 232.154 135.896 232.154H144.698C144.68 232.586 144.68 232.964 144.662 233.162H146.282C146.264 232.874 146.21 232.064 146.21 231.416V222.128C146.21 221.696 146.246 221.138 146.264 220.724C145.904 220.742 145.364 220.76 144.932 220.76H136.058C135.482 220.76 134.69 220.724 134.096 220.652ZM163.58 219.896L161.924 219.32C161.852 219.716 161.69 220.292 161.564 220.652C161.024 222.182 160.286 223.892 159.116 225.566C157.694 224.468 155.606 222.992 154.058 222.002L153.122 223.136C154.85 224.216 156.866 225.692 158.198 226.772C156.416 228.95 154.202 230.948 151.052 232.424L152.294 233.558C155.426 231.92 157.658 229.778 159.35 227.744C160.898 229.076 162.266 230.354 163.598 231.884L164.732 230.642C163.454 229.256 161.906 227.852 160.286 226.52C161.492 224.774 162.392 222.794 162.986 221.21C163.13 220.832 163.382 220.22 163.58 219.896ZM171.086 219.806L170.06 220.904C171.392 221.804 173.642 223.73 174.542 224.666L175.676 223.532C174.668 222.524 172.364 220.652 171.086 219.806ZM169.538 231.866L170.492 233.342C173.498 232.784 175.766 231.686 177.566 230.552C180.284 228.842 182.39 226.394 183.614 224.144L182.75 222.614C181.706 224.828 179.51 227.492 176.738 229.238C175.028 230.3 172.688 231.398 169.538 231.866ZM191.066 231.416C191.066 232.082 191.03 232.964 190.94 233.54H192.686C192.614 232.946 192.578 231.974 192.578 231.416C192.578 230.894 192.578 228.176 192.56 225.476C194.558 226.106 197.672 227.312 199.634 228.374L200.246 226.844C198.356 225.89 194.936 224.594 192.56 223.874C192.56 222.74 192.56 221.696 192.56 220.94C192.56 220.4 192.632 219.626 192.686 219.068H190.922C191.03 219.626 191.066 220.436 191.066 220.94V231.416ZM206.096 220.652V222.254C206.51 222.236 207.41 222.2 208.076 222.2H216.698V230.696H207.86C207.104 230.696 206.33 230.642 205.862 230.588V232.226C206.348 232.19 207.158 232.154 207.896 232.154H216.698C216.68 232.586 216.68 232.964 216.662 233.162H218.282C218.264 232.874 218.21 232.064 218.21 231.416V222.128C218.21 221.696 218.246 221.138 218.264 220.724C217.904 220.742 217.364 220.76 216.932 220.76H208.058C207.482 220.76 206.69 220.724 206.096 220.652ZM235.58 219.896L233.924 219.32C233.852 219.716 233.69 220.292 233.564 220.652C233.024 222.182 232.286 223.892 231.116 225.566C229.694 224.468 227.606 222.992 226.058 222.002L225.122 223.136C226.85 224.216 228.866 225.692 230.198 226.772C228.416 228.95 226.202 230.948 223.052 232.424L224.294 233.558C227.426 231.92 229.658 229.778 231.35 227.744C232.898 229.076 234.266 230.354 235.598 231.884L236.732 230.642C235.454 229.256 233.906 227.852 232.286 226.52C233.492 224.774 234.392 222.794 234.986 221.21C235.13 220.832 235.382 220.22 235.58 219.896ZM243.086 219.806L242.06 220.904C243.392 221.804 245.642 223.73 246.542 224.666L247.676 223.532C246.668 222.524 244.364 220.652 243.086 219.806ZM241.538 231.866L242.492 233.342C245.498 232.784 247.766 231.686 249.566 230.552C252.284 228.842 254.39 226.394 255.614 224.144L254.75 222.614C253.706 224.828 251.51 227.492 248.738 229.238C247.028 230.3 244.688 231.398 241.538 231.866ZM263.066 231.416C263.066 232.082 263.03 232.964 262.94 233.54H264.686C264.614 232.946 264.578 231.974 264.578 231.416C264.578 230.894 264.578 228.176 264.56 225.476C266.558 226.106 269.672 227.312 271.634 228.374L272.246 226.844C270.356 225.89 266.936 224.594 264.56 223.874C264.56 222.74 264.56 221.696 264.56 220.94C264.56 220.4 264.632 219.626 264.686 219.068H262.922C263.03 219.626 263.066 220.436 263.066 220.94V231.416ZM44.096 241.652V243.254C44.51 243.236 45.41 243.2 46.076 243.2H54.698V251.696H45.86C45.104 251.696 44.33 251.642 43.862 251.588V253.226C44.348 253.19 45.158 253.154 45.896 253.154H54.698C54.68 253.586 54.68 253.964 54.662 254.162H56.282C56.264 253.874 56.21 253.064 56.21 252.416V243.128C56.21 242.696 56.246 242.138 56.264 241.724C55.904 241.742 55.364 241.76 54.932 241.76H46.058C45.482 241.76 44.69 241.724 44.096 241.652ZM73.58 240.896L71.924 240.32C71.852 240.716 71.69 241.292 71.564 241.652C71.024 243.182 70.286 244.892 69.116 246.566C67.694 245.468 65.606 243.992 64.058 243.002L63.122 244.136C64.85 245.216 66.866 246.692 68.198 247.772C66.416 249.95 64.202 251.948 61.052 253.424L62.294 254.558C65.426 252.92 67.658 250.778 69.35 248.744C70.898 250.076 72.266 251.354 73.598 252.884L74.732 251.642C73.454 250.256 71.906 248.852 70.286 247.52C71.492 245.774 72.392 243.794 72.986 242.21C73.13 241.832 73.382 241.22 73.58 240.896ZM81.086 240.806L80.06 241.904C81.392 242.804 83.642 244.73 84.542 245.666L85.676 244.532C84.668 243.524 82.364 241.652 81.086 240.806ZM79.538 252.866L80.492 254.342C83.498 253.784 85.766 252.686 87.566 251.552C90.284 249.842 92.39 247.394 93.614 245.144L92.75 243.614C91.706 245.828 89.51 248.492 86.738 250.238C85.028 251.3 82.688 252.398 79.538 252.866ZM101.066 252.416C101.066 253.082 101.03 253.964 100.94 254.54H102.686C102.614 253.946 102.578 252.974 102.578 252.416C102.578 251.894 102.578 249.176 102.56 246.476C104.558 247.106 107.672 248.312 109.634 249.374L110.246 247.844C108.356 246.89 104.936 245.594 102.56 244.874C102.56 243.74 102.56 242.696 102.56 241.94C102.56 241.4 102.632 240.626 102.686 240.068H100.922C101.03 240.626 101.066 241.436 101.066 241.94V252.416ZM116.096 241.652V243.254C116.51 243.236 117.41 243.2 118.076 243.2H126.698V251.696H117.86C117.104 251.696 116.33 251.642 115.862 251.588V253.226C116.348 253.19 117.158 253.154 117.896 253.154H126.698C126.68 253.586 126.68 253.964 126.662 254.162H128.282C128.264 253.874 128.21 253.064 128.21 252.416V243.128C128.21 242.696 128.246 242.138 128.264 241.724C127.904 241.742 127.364 241.76 126.932 241.76H118.058C117.482 241.76 116.69 241.724 116.096 241.652ZM145.58 240.896L143.924 240.32C143.852 240.716 143.69 241.292 143.564 241.652C143.024 243.182 142.286 244.892 141.116 246.566C139.694 245.468 137.606 243.992 136.058 243.002L135.122 244.136C136.85 245.216 138.866 246.692 140.198 247.772C138.416 249.95 136.202 251.948 133.052 253.424L134.294 254.558C137.426 252.92 139.658 250.778 141.35 248.744C142.898 250.076 144.266 251.354 145.598 252.884L146.732 251.642C145.454 250.256 143.906 248.852 142.286 247.52C143.492 245.774 144.392 243.794 144.986 242.21C145.13 241.832 145.382 241.22 145.58 240.896ZM153.086 240.806L152.06 241.904C153.392 242.804 155.642 244.73 156.542 245.666L157.676 244.532C156.668 243.524 154.364 241.652 153.086 240.806ZM151.538 252.866L152.492 254.342C155.498 253.784 157.766 252.686 159.566 251.552C162.284 249.842 164.39 247.394 165.614 245.144L164.75 243.614C163.706 245.828 161.51 248.492 158.738 250.238C157.028 251.3 154.688 252.398 151.538 252.866ZM173.066 252.416C173.066 253.082 173.03 253.964 172.94 254.54H174.686C174.614 253.946 174.578 252.974 174.578 252.416C174.578 251.894 174.578 249.176 174.56 246.476C176.558 247.106 179.672 248.312 181.634 249.374L182.246 247.844C180.356 246.89 176.936 245.594 174.56 244.874C174.56 243.74 174.56 242.696 174.56 241.94C174.56 241.4 174.632 240.626 174.686 240.068H172.922C173.03 240.626 173.066 241.436 173.066 241.94V252.416ZM188.096 241.652V243.254C188.51 243.236 189.41 243.2 190.076 243.2H198.698V251.696H189.86C189.104 251.696 188.33 251.642 187.862 251.588V253.226C188.348 253.19 189.158 253.154 189.896 253.154H198.698C198.68 253.586 198.68 253.964 198.662 254.162H200.282C200.264 253.874 200.21 253.064 200.21 252.416V243.128C200.21 242.696 200.246 242.138 200.264 241.724C199.904 241.742 199.364 241.76 198.932 241.76H190.058C189.482 241.76 188.69 241.724 188.096 241.652ZM217.58 240.896L215.924 240.32C215.852 240.716 215.69 241.292 215.564 241.652C215.024 243.182 214.286 244.892 213.116 246.566C211.694 245.468 209.606 243.992 208.058 243.002L207.122 244.136C208.85 245.216 210.866 246.692 212.198 247.772C210.416 249.95 208.202 251.948 205.052 253.424L206.294 254.558C209.426 252.92 211.658 250.778 213.35 248.744C214.898 250.076 216.266 251.354 217.598 252.884L218.732 251.642C217.454 250.256 215.906 248.852 214.286 247.52C215.492 245.774 216.392 243.794 216.986 242.21C217.13 241.832 217.382 241.22 217.58 240.896ZM225.086 240.806L224.06 241.904C225.392 242.804 227.642 244.73 228.542 245.666L229.676 244.532C228.668 243.524 226.364 241.652 225.086 240.806ZM223.538 252.866L224.492 254.342C227.498 253.784 229.766 252.686 231.566 251.552C234.284 249.842 236.39 247.394 237.614 245.144L236.75 243.614C235.706 245.828 233.51 248.492 230.738 250.238C229.028 251.3 226.688 252.398 223.538 252.866ZM245.066 252.416C245.066 253.082 245.03 253.964 244.94 254.54H246.686C246.614 253.946 246.578 252.974 246.578 252.416C246.578 251.894 246.578 249.176 246.56 246.476C248.558 247.106 251.672 248.312 253.634 249.374L254.246 247.844C252.356 246.89 248.936 245.594 246.56 244.874C246.56 243.74 246.56 242.696 246.56 241.94C246.56 241.4 246.632 240.626 246.686 240.068H244.922C245.03 240.626 245.066 241.436 245.066 241.94V252.416ZM260.096 241.652V243.254C260.51 243.236 261.41 243.2 262.076 243.2H270.698V251.696H261.86C261.104 251.696 260.33 251.642 259.862 251.588V253.226C260.348 253.19 261.158 253.154 261.896 253.154H270.698C270.68 253.586 270.68 253.964 270.662 254.162H272.282C272.264 253.874 272.21 253.064 272.21 252.416V243.128C272.21 242.696 272.246 242.138 272.264 241.724C271.904 241.742 271.364 241.76 270.932 241.76H262.058C261.482 241.76 260.69 241.724 260.096 241.652ZM55.58 261.896L53.924 261.32C53.852 261.716 53.69 262.292 53.564 262.652C53.024 264.182 52.286 265.892 51.116 267.566C49.694 266.468 47.606 264.992 46.058 264.002L45.122 265.136C46.85 266.216 48.866 267.692 50.198 268.772C48.416 270.95 46.202 272.948 43.052 274.424L44.294 275.558C47.426 273.92 49.658 271.778 51.35 269.744C52.898 271.076 54.266 272.354 55.598 273.884L56.732 272.642C55.454 271.256 53.906 269.852 52.286 268.52C53.492 266.774 54.392 264.794 54.986 263.21C55.13 262.832 55.382 262.22 55.58 261.896ZM63.086 261.806L62.06 262.904C63.392 263.804 65.642 265.73 66.542 266.666L67.676 265.532C66.668 264.524 64.364 262.652 63.086 261.806ZM61.538 273.866L62.492 275.342C65.498 274.784 67.766 273.686 69.566 272.552C72.284 270.842 74.39 268.394 75.614 266.144L74.75 264.614C73.706 266.828 71.51 269.492 68.738 271.238C67.028 272.3 64.688 273.398 61.538 273.866ZM83.066 273.416C83.066 274.082 83.03 274.964 82.94 275.54H84.686C84.614 274.946 84.578 273.974 84.578 273.416C84.578 272.894 84.578 270.176 84.56 267.476C86.558 268.106 89.672 269.312 91.634 270.374L92.246 268.844C90.356 267.89 86.936 266.594 84.56 265.874C84.56 264.74 84.56 263.696 84.56 262.94C84.56 262.4 84.632 261.626 84.686 261.068H82.922C83.03 261.626 83.066 262.436 83.066 262.94V273.416ZM98.096 262.652V264.254C98.51 264.236 99.41 264.2 100.076 264.2H108.698V272.696H99.86C99.104 272.696 98.33 272.642 97.862 272.588V274.226C98.348 274.19 99.158 274.154 99.896 274.154H108.698C108.68 274.586 108.68 274.964 108.662 275.162H110.282C110.264 274.874 110.21 274.064 110.21 273.416V264.128C110.21 263.696 110.246 263.138 110.264 262.724C109.904 262.742 109.364 262.76 108.932 262.76H100.058C99.482 262.76 98.69 262.724 98.096 262.652ZM127.58 261.896L125.924 261.32C125.852 261.716 125.69 262.292 125.564 262.652C125.024 264.182 124.286 265.892 123.116 267.566C121.694 266.468 119.606 264.992 118.058 264.002L117.122 265.136C118.85 266.216 120.866 267.692 122.198 268.772C120.416 270.95 118.202 272.948 115.052 274.424L116.294 275.558C119.426 273.92 121.658 271.778 123.35 269.744C124.898 271.076 126.266 272.354 127.598 273.884L128.732 272.642C127.454 271.256 125.906 269.852 124.286 268.52C125.492 266.774 126.392 264.794 126.986 263.21C127.13 262.832 127.382 262.22 127.58 261.896ZM135.086 261.806L134.06 262.904C135.392 263.804 137.642 265.73 138.542 266.666L139.676 265.532C138.668 264.524 136.364 262.652 135.086 261.806ZM133.538 273.866L134.492 275.342C137.498 274.784 139.766 273.686 141.566 272.552C144.284 270.842 146.39 268.394 147.614 266.144L146.75 264.614C145.706 266.828 143.51 269.492 140.738 271.238C139.028 272.3 136.688 273.398 133.538 273.866ZM155.066 273.416C155.066 274.082 155.03 274.964 154.94 275.54H156.686C156.614 274.946 156.578 273.974 156.578 273.416C156.578 272.894 156.578 270.176 156.56 267.476C158.558 268.106 161.672 269.312 163.634 270.374L164.246 268.844C162.356 267.89 158.936 266.594 156.56 265.874C156.56 264.74 156.56 263.696 156.56 262.94C156.56 262.4 156.632 261.626 156.686 261.068H154.922C155.03 261.626 155.066 262.436 155.066 262.94V273.416ZM170.096 262.652V264.254C170.51 264.236 171.41 264.2 172.076 264.2H180.698V272.696H171.86C171.104 272.696 170.33 272.642 169.862 272.588V274.226C170.348 274.19 171.158 274.154 171.896 274.154H180.698C180.68 274.586 180.68 274.964 180.662 275.162H182.282C182.264 274.874 182.21 274.064 182.21 273.416V264.128C182.21 263.696 182.246 263.138 182.264 262.724C181.904 262.742 181.364 262.76 180.932 262.76H172.058C171.482 262.76 170.69 262.724 170.096 262.652ZM199.58 261.896L197.924 261.32C197.852 261.716 197.69 262.292 197.564 262.652C197.024 264.182 196.286 265.892 195.116 267.566C193.694 266.468 191.606 264.992 190.058 264.002L189.122 265.136C190.85 266.216 192.866 267.692 194.198 268.772C192.416 270.95 190.202 272.948 187.052 274.424L188.294 275.558C191.426 273.92 193.658 271.778 195.35 269.744C196.898 271.076 198.266 272.354 199.598 273.884L200.732 272.642C199.454 271.256 197.906 269.852 196.286 268.52C197.492 266.774 198.392 264.794 198.986 263.21C199.13 262.832 199.382 262.22 199.58 261.896ZM207.086 261.806L206.06 262.904C207.392 263.804 209.642 265.73 210.542 266.666L211.676 265.532C210.668 264.524 208.364 262.652 207.086 261.806ZM205.538 273.866L206.492 275.342C209.498 274.784 211.766 273.686 213.566 272.552C216.284 270.842 218.39 268.394 219.614 266.144L218.75 264.614C217.706 266.828 215.51 269.492 212.738 271.238C211.028 272.3 208.688 273.398 205.538 273.866ZM227.066 273.416C227.066 274.082 227.03 274.964 226.94 275.54H228.686C228.614 274.946 228.578 273.974 228.578 273.416C228.578 272.894 228.578 270.176 228.56 267.476C230.558 268.106 233.672 269.312 235.634 270.374L236.246 268.844C234.356 267.89 230.936 266.594 228.56 265.874C228.56 264.74 228.56 263.696 228.56 262.94C228.56 262.4 228.632 261.626 228.686 261.068H226.922C227.03 261.626 227.066 262.436 227.066 262.94V273.416ZM242.096 262.652V264.254C242.51 264.236 243.41 264.2 244.076 264.2H252.698V272.696H243.86C243.104 272.696 242.33 272.642 241.862 272.588V274.226C242.348 274.19 243.158 274.154 243.896 274.154H252.698C252.68 274.586 252.68 274.964 252.662 275.162H254.282C254.264 274.874 254.21 274.064 254.21 273.416V264.128C254.21 263.696 254.246 263.138 254.264 262.724C253.904 262.742 253.364 262.76 252.932 262.76H244.058C243.482 262.76 242.69 262.724 242.096 262.652ZM271.58 261.896L269.924 261.32C269.852 261.716 269.69 262.292 269.564 262.652C269.024 264.182 268.286 265.892 267.116 267.566C265.694 266.468 263.606 264.992 262.058 264.002L261.122 265.136C262.85 266.216 264.866 267.692 266.198 268.772C264.416 270.95 262.202 272.948 259.052 274.424L260.294 275.558C263.426 273.92 265.658 271.778 267.35 269.744C268.898 271.076 270.266 272.354 271.598 273.884L272.732 272.642C271.454 271.256 269.906 269.852 268.286 268.52C269.492 266.774 270.392 264.794 270.986 263.21C271.13 262.832 271.382 262.22 271.58 261.896ZM45.086 282.806L44.06 283.904C45.392 284.804 47.642 286.73 48.542 287.666L49.676 286.532C48.668 285.524 46.364 283.652 45.086 282.806ZM43.538 294.866L44.492 296.342C47.498 295.784 49.766 294.686 51.566 293.552C54.284 291.842 56.39 289.394 57.614 287.144L56.75 285.614C55.706 287.828 53.51 290.492 50.738 292.238C49.028 293.3 46.688 294.398 43.538 294.866ZM65.066 294.416C65.066 295.082 65.03 295.964 64.94 296.54H66.686C66.614 295.946 66.578 294.974 66.578 294.416C66.578 293.894 66.578 291.176 66.56 288.476C68.558 289.106 71.672 290.312 73.634 291.374L74.246 289.844C72.356 288.89 68.936 287.594 66.56 286.874C66.56 285.74 66.56 284.696 66.56 283.94C66.56 283.4 66.632 282.626 66.686 282.068H64.922C65.03 282.626 65.066 283.436 65.066 283.94V294.416ZM80.096 283.652V285.254C80.51 285.236 81.41 285.2 82.076 285.2H90.698V293.696H81.86C81.104 293.696 80.33 293.642 79.862 293.588V295.226C80.348 295.19 81.158 295.154 81.896 295.154H90.698C90.68 295.586 90.68 295.964 90.662 296.162H92.282C92.264 295.874 92.21 295.064 92.21 294.416V285.128C92.21 284.696 92.246 284.138 92.264 283.724C91.904 283.742 91.364 283.76 90.932 283.76H82.058C81.482 283.76 80.69 283.724 80.096 283.652ZM109.58 282.896L107.924 282.32C107.852 282.716 107.69 283.292 107.564 283.652C107.024 285.182 106.286 286.892 105.116 288.566C103.694 287.468 101.606 285.992 100.058 285.002L99.122 286.136C100.85 287.216 102.866 288.692 104.198 289.772C102.416 291.95 100.202 293.948 97.052 295.424L98.294 296.558C101.426 294.92 103.658 292.778 105.35 290.744C106.898 292.076 108.266 293.354 109.598 294.884L110.732 293.642C109.454 292.256 107.906 290.852 106.286 289.52C107.492 287.774 108.392 285.794 108.986 284.21C109.13 283.832 109.382 283.22 109.58 282.896ZM117.086 282.806L116.06 283.904C117.392 284.804 119.642 286.73 120.542 287.666L121.676 286.532C120.668 285.524 118.364 283.652 117.086 282.806ZM115.538 294.866L116.492 296.342C119.498 295.784 121.766 294.686 123.566 293.552C126.284 291.842 128.39 289.394 129.614 287.144L128.75 285.614C127.706 287.828 125.51 290.492 122.738 292.238C121.028 293.3 118.688 294.398 115.538 294.866ZM137.066 294.416C137.066 295.082 137.03 295.964 136.94 296.54H138.686C138.614 295.946 138.578 294.974 138.578 294.416C138.578 293.894 138.578 291.176 138.56 288.476C140.558 289.106 143.672 290.312 145.634 291.374L146.246 289.844C144.356 288.89 140.936 287.594 138.56 286.874C138.56 285.74 138.56 284.696 138.56 283.94C138.56 283.4 138.632 282.626 138.686 282.068H136.922C137.03 282.626 137.066 283.436 137.066 283.94V294.416ZM152.096 283.652V285.254C152.51 285.236 153.41 285.2 154.076 285.2H162.698V293.696H153.86C153.104 293.696 152.33 293.642 151.862 293.588V295.226C152.348 295.19 153.158 295.154 153.896 295.154H162.698C162.68 295.586 162.68 295.964 162.662 296.162H164.282C164.264 295.874 164.21 295.064 164.21 294.416V285.128C164.21 284.696 164.246 284.138 164.264 283.724C163.904 283.742 163.364 283.76 162.932 283.76H154.058C153.482 283.76 152.69 283.724 152.096 283.652ZM181.58 282.896L179.924 282.32C179.852 282.716 179.69 283.292 179.564 283.652C179.024 285.182 178.286 286.892 177.116 288.566C175.694 287.468 173.606 285.992 172.058 285.002L171.122 286.136C172.85 287.216 174.866 288.692 176.198 289.772C174.416 291.95 172.202 293.948 169.052 295.424L170.294 296.558C173.426 294.92 175.658 292.778 177.35 290.744C178.898 292.076 180.266 293.354 181.598 294.884L182.732 293.642C181.454 292.256 179.906 290.852 178.286 289.52C179.492 287.774 180.392 285.794 180.986 284.21C181.13 283.832 181.382 283.22 181.58 282.896ZM189.086 282.806L188.06 283.904C189.392 284.804 191.642 286.73 192.542 287.666L193.676 286.532C192.668 285.524 190.364 283.652 189.086 282.806ZM187.538 294.866L188.492 296.342C191.498 295.784 193.766 294.686 195.566 293.552C198.284 291.842 200.39 289.394 201.614 287.144L200.75 285.614C199.706 287.828 197.51 290.492 194.738 292.238C193.028 293.3 190.688 294.398 187.538 294.866ZM209.066 294.416C209.066 295.082 209.03 295.964 208.94 296.54H210.686C210.614 295.946 210.578 294.974 210.578 294.416C210.578 293.894 210.578 291.176 210.56 288.476C212.558 289.106 215.672 290.312 217.634 291.374L218.246 289.844C216.356 288.89 212.936 287.594 210.56 286.874C210.56 285.74 210.56 284.696 210.56 283.94C210.56 283.4 210.632 282.626 210.686 282.068H208.922C209.03 282.626 209.066 283.436 209.066 283.94V294.416ZM224.096 283.652V285.254C224.51 285.236 225.41 285.2 226.076 285.2H234.698V293.696H225.86C225.104 293.696 224.33 293.642 223.862 293.588V295.226C224.348 295.19 225.158 295.154 225.896 295.154H234.698C234.68 295.586 234.68 295.964 234.662 296.162H236.282C236.264 295.874 236.21 295.064 236.21 294.416V285.128C236.21 284.696 236.246 284.138 236.264 283.724C235.904 283.742 235.364 283.76 234.932 283.76H226.058C225.482 283.76 224.69 283.724 224.096 283.652ZM253.58 282.896L251.924 282.32C251.852 282.716 251.69 283.292 251.564 283.652C251.024 285.182 250.286 286.892 249.116 288.566C247.694 287.468 245.606 285.992 244.058 285.002L243.122 286.136C244.85 287.216 246.866 288.692 248.198 289.772C246.416 291.95 244.202 293.948 241.052 295.424L242.294 296.558C245.426 294.92 247.658 292.778 249.35 290.744C250.898 292.076 252.266 293.354 253.598 294.884L254.732 293.642C253.454 292.256 251.906 290.852 250.286 289.52C251.492 287.774 252.392 285.794 252.986 284.21C253.13 283.832 253.382 283.22 253.58 282.896ZM261.086 282.806L260.06 283.904C261.392 284.804 263.642 286.73 264.542 287.666L265.676 286.532C264.668 285.524 262.364 283.652 261.086 282.806ZM259.538 294.866L260.492 296.342C263.498 295.784 265.766 294.686 267.566 293.552C270.284 291.842 272.39 289.394 273.614 287.144L272.75 285.614C271.706 287.828 269.51 290.492 266.738 292.238C265.028 293.3 262.688 294.398 259.538 294.866ZM47.066 315.416C47.066 316.082 47.03 316.964 46.94 317.54H48.686C48.614 316.946 48.578 315.974 48.578 315.416C48.578 314.894 48.578 312.176 48.56 309.476C50.558 310.106 53.672 311.312 55.634 312.374L56.246 310.844C54.356 309.89 50.936 308.594 48.56 307.874C48.56 306.74 48.56 305.696 48.56 304.94C48.56 304.4 48.632 303.626 48.686 303.068H46.922C47.03 303.626 47.066 304.436 47.066 304.94V315.416ZM62.096 304.652V306.254C62.51 306.236 63.41 306.2 64.076 306.2H72.698V314.696H63.86C63.104 314.696 62.33 314.642 61.862 314.588V316.226C62.348 316.19 63.158 316.154 63.896 316.154H72.698C72.68 316.586 72.68 316.964 72.662 317.162H74.282C74.264 316.874 74.21 316.064 74.21 315.416V306.128C74.21 305.696 74.246 305.138 74.264 304.724C73.904 304.742 73.364 304.76 72.932 304.76H64.058C63.482 304.76 62.69 304.724 62.096 304.652ZM91.58 303.896L89.924 303.32C89.852 303.716 89.69 304.292 89.564 304.652C89.024 306.182 88.286 307.892 87.116 309.566C85.694 308.468 83.606 306.992 82.058 306.002L81.122 307.136C82.85 308.216 84.866 309.692 86.198 310.772C84.416 312.95 82.202 314.948 79.052 316.424L80.294 317.558C83.426 315.92 85.658 313.778 87.35 311.744C88.898 313.076 90.266 314.354 91.598 315.884L92.732 314.642C91.454 313.256 89.906 311.852 88.286 310.52C89.492 308.774 90.392 306.794 90.986 305.21C91.13 304.832 91.382 304.22 91.58 303.896ZM99.086 303.806L98.06 304.904C99.392 305.804 101.642 307.73 102.542 308.666L103.676 307.532C102.668 306.524 100.364 304.652 99.086 303.806ZM97.538 315.866L98.492 317.342C101.498 316.784 103.766 315.686 105.566 314.552C108.284 312.842 110.39 310.394 111.614 308.144L110.75 306.614C109.706 308.828 107.51 311.492 104.738 313.238C103.028 314.3 100.688 315.398 97.538 315.866ZM119.066 315.416C119.066 316.082 119.03 316.964 118.94 317.54H120.686C120.614 316.946 120.578 315.974 120.578 315.416C120.578 314.894 120.578 312.176 120.56 309.476C122.558 310.106 125.672 311.312 127.634 312.374L128.246 310.844C126.356 309.89 122.936 308.594 120.56 307.874C120.56 306.74 120.56 305.696 120.56 304.94C120.56 304.4 120.632 303.626 120.686 303.068H118.922C119.03 303.626 119.066 304.436 119.066 304.94V315.416ZM134.096 304.652V306.254C134.51 306.236 135.41 306.2 136.076 306.2H144.698V314.696H135.86C135.104 314.696 134.33 314.642 133.862 314.588V316.226C134.348 316.19 135.158 316.154 135.896 316.154H144.698C144.68 316.586 144.68 316.964 144.662 317.162H146.282C146.264 316.874 146.21 316.064 146.21 315.416V306.128C146.21 305.696 146.246 305.138 146.264 304.724C145.904 304.742 145.364 304.76 144.932 304.76H136.058C135.482 304.76 134.69 304.724 134.096 304.652ZM163.58 303.896L161.924 303.32C161.852 303.716 161.69 304.292 161.564 304.652C161.024 306.182 160.286 307.892 159.116 309.566C157.694 308.468 155.606 306.992 154.058 306.002L153.122 307.136C154.85 308.216 156.866 309.692 158.198 310.772C156.416 312.95 154.202 314.948 151.052 316.424L152.294 317.558C155.426 315.92 157.658 313.778 159.35 311.744C160.898 313.076 162.266 314.354 163.598 315.884L164.732 314.642C163.454 313.256 161.906 311.852 160.286 310.52C161.492 308.774 162.392 306.794 162.986 305.21C163.13 304.832 163.382 304.22 163.58 303.896ZM171.086 303.806L170.06 304.904C171.392 305.804 173.642 307.73 174.542 308.666L175.676 307.532C174.668 306.524 172.364 304.652 171.086 303.806ZM169.538 315.866L170.492 317.342C173.498 316.784 175.766 315.686 177.566 314.552C180.284 312.842 182.39 310.394 183.614 308.144L182.75 306.614C181.706 308.828 179.51 311.492 176.738 313.238C175.028 314.3 172.688 315.398 169.538 315.866ZM191.066 315.416C191.066 316.082 191.03 316.964 190.94 317.54H192.686C192.614 316.946 192.578 315.974 192.578 315.416C192.578 314.894 192.578 312.176 192.56 309.476C194.558 310.106 197.672 311.312 199.634 312.374L200.246 310.844C198.356 309.89 194.936 308.594 192.56 307.874C192.56 306.74 192.56 305.696 192.56 304.94C192.56 304.4 192.632 303.626 192.686 303.068H190.922C191.03 303.626 191.066 304.436 191.066 304.94V315.416ZM206.096 304.652V306.254C206.51 306.236 207.41 306.2 208.076 306.2H216.698V314.696H207.86C207.104 314.696 206.33 314.642 205.862 314.588V316.226C206.348 316.19 207.158 316.154 207.896 316.154H216.698C216.68 316.586 216.68 316.964 216.662 317.162H218.282C218.264 316.874 218.21 316.064 218.21 315.416V306.128C218.21 305.696 218.246 305.138 218.264 304.724C217.904 304.742 217.364 304.76 216.932 304.76H208.058C207.482 304.76 206.69 304.724 206.096 304.652ZM235.58 303.896L233.924 303.32C233.852 303.716 233.69 304.292 233.564 304.652C233.024 306.182 232.286 307.892 231.116 309.566C229.694 308.468 227.606 306.992 226.058 306.002L225.122 307.136C226.85 308.216 228.866 309.692 230.198 310.772C228.416 312.95 226.202 314.948 223.052 316.424L224.294 317.558C227.426 315.92 229.658 313.778 231.35 311.744C232.898 313.076 234.266 314.354 235.598 315.884L236.732 314.642C235.454 313.256 233.906 311.852 232.286 310.52C233.492 308.774 234.392 306.794 234.986 305.21C235.13 304.832 235.382 304.22 235.58 303.896ZM243.086 303.806L242.06 304.904C243.392 305.804 245.642 307.73 246.542 308.666L247.676 307.532C246.668 306.524 244.364 304.652 243.086 303.806ZM241.538 315.866L242.492 317.342C245.498 316.784 247.766 315.686 249.566 314.552C252.284 312.842 254.39 310.394 255.614 308.144L254.75 306.614C253.706 308.828 251.51 311.492 248.738 313.238C247.028 314.3 244.688 315.398 241.538 315.866ZM263.066 315.416C263.066 316.082 263.03 316.964 262.94 317.54H264.686C264.614 316.946 264.578 315.974 264.578 315.416C264.578 314.894 264.578 312.176 264.56 309.476C266.558 310.106 269.672 311.312 271.634 312.374L272.246 310.844C270.356 309.89 266.936 308.594 264.56 307.874C264.56 306.74 264.56 305.696 264.56 304.94C264.56 304.4 264.632 303.626 264.686 303.068H262.922C263.03 303.626 263.066 304.436 263.066 304.94V315.416ZM44.096 325.652V327.254C44.51 327.236 45.41 327.2 46.076 327.2H54.698V335.696H45.86C45.104 335.696 44.33 335.642 43.862 335.588V337.226C44.348 337.19 45.158 337.154 45.896 337.154H54.698C54.68 337.586 54.68 337.964 54.662 338.162H56.282C56.264 337.874 56.21 337.064 56.21 336.416V327.128C56.21 326.696 56.246 326.138 56.264 325.724C55.904 325.742 55.364 325.76 54.932 325.76H46.058C45.482 325.76 44.69 325.724 44.096 325.652ZM73.58 324.896L71.924 324.32C71.852 324.716 71.69 325.292 71.564 325.652C71.024 327.182 70.286 328.892 69.116 330.566C67.694 329.468 65.606 327.992 64.058 327.002L63.122 328.136C64.85 329.216 66.866 330.692 68.198 331.772C66.416 333.95 64.202 335.948 61.052 337.424L62.294 338.558C65.426 336.92 67.658 334.778 69.35 332.744C70.898 334.076 72.266 335.354 73.598 336.884L74.732 335.642C73.454 334.256 71.906 332.852 70.286 331.52C71.492 329.774 72.392 327.794 72.986 326.21C73.13 325.832 73.382 325.22 73.58 324.896ZM81.086 324.806L80.06 325.904C81.392 326.804 83.642 328.73 84.542 329.666L85.676 328.532C84.668 327.524 82.364 325.652 81.086 324.806ZM79.538 336.866L80.492 338.342C83.498 337.784 85.766 336.686 87.566 335.552C90.284 333.842 92.39 331.394 93.614 329.144L92.75 327.614C91.706 329.828 89.51 332.492 86.738 334.238C85.028 335.3 82.688 336.398 79.538 336.866ZM101.066 336.416C101.066 337.082 101.03 337.964 100.94 338.54H102.686C102.614 337.946 102.578 336.974 102.578 336.416C102.578 335.894 102.578 333.176 102.56 330.476C104.558 331.106 107.672 332.312 109.634 333.374L110.246 331.844C108.356 330.89 104.936 329.594 102.56 328.874C102.56 327.74 102.56 326.696 102.56 325.94C102.56 325.4 102.632 324.626 102.686 324.068H100.922C101.03 324.626 101.066 325.436 101.066 325.94V336.416ZM116.096 325.652V327.254C116.51 327.236 117.41 327.2 118.076 327.2H126.698V335.696H117.86C117.104 335.696 116.33 335.642 115.862 335.588V337.226C116.348 337.19 117.158 337.154 117.896 337.154H126.698C126.68 337.586 126.68 337.964 126.662 338.162H128.282C128.264 337.874 128.21 337.064 128.21 336.416V327.128C128.21 326.696 128.246 326.138 128.264 325.724C127.904 325.742 127.364 325.76 126.932 325.76H118.058C117.482 325.76 116.69 325.724 116.096 325.652ZM145.58 324.896L143.924 324.32C143.852 324.716 143.69 325.292 143.564 325.652C143.024 327.182 142.286 328.892 141.116 330.566C139.694 329.468 137.606 327.992 136.058 327.002L135.122 328.136C136.85 329.216 138.866 330.692 140.198 331.772C138.416 333.95 136.202 335.948 133.052 337.424L134.294 338.558C137.426 336.92 139.658 334.778 141.35 332.744C142.898 334.076 144.266 335.354 145.598 336.884L146.732 335.642C145.454 334.256 143.906 332.852 142.286 331.52C143.492 329.774 144.392 327.794 144.986 326.21C145.13 325.832 145.382 325.22 145.58 324.896ZM153.086 324.806L152.06 325.904C153.392 326.804 155.642 328.73 156.542 329.666L157.676 328.532C156.668 327.524 154.364 325.652 153.086 324.806ZM151.538 336.866L152.492 338.342C155.498 337.784 157.766 336.686 159.566 335.552C162.284 333.842 164.39 331.394 165.614 329.144L164.75 327.614C163.706 329.828 161.51 332.492 158.738 334.238C157.028 335.3 154.688 336.398 151.538 336.866ZM173.066 336.416C173.066 337.082 173.03 337.964 172.94 338.54H174.686C174.614 337.946 174.578 336.974 174.578 336.416C174.578 335.894 174.578 333.176 174.56 330.476C176.558 331.106 179.672 332.312 181.634 333.374L182.246 331.844C180.356 330.89 176.936 329.594 174.56 328.874C174.56 327.74 174.56 326.696 174.56 325.94C174.56 325.4 174.632 324.626 174.686 324.068H172.922C173.03 324.626 173.066 325.436 173.066 325.94V336.416ZM188.096 325.652V327.254C188.51 327.236 189.41 327.2 190.076 327.2H198.698V335.696H189.86C189.104 335.696 188.33 335.642 187.862 335.588V337.226C188.348 337.19 189.158 337.154 189.896 337.154H198.698C198.68 337.586 198.68 337.964 198.662 338.162H200.282C200.264 337.874 200.21 337.064 200.21 336.416V327.128C200.21 326.696 200.246 326.138 200.264 325.724C199.904 325.742 199.364 325.76 198.932 325.76H190.058C189.482 325.76 188.69 325.724 188.096 325.652ZM217.58 324.896L215.924 324.32C215.852 324.716 215.69 325.292 215.564 325.652C215.024 327.182 214.286 328.892 213.116 330.566C211.694 329.468 209.606 327.992 208.058 327.002L207.122 328.136C208.85 329.216 210.866 330.692 212.198 331.772C210.416 333.95 208.202 335.948 205.052 337.424L206.294 338.558C209.426 336.92 211.658 334.778 213.35 332.744C214.898 334.076 216.266 335.354 217.598 336.884L218.732 335.642C217.454 334.256 215.906 332.852 214.286 331.52C215.492 329.774 216.392 327.794 216.986 326.21C217.13 325.832 217.382 325.22 217.58 324.896ZM225.086 324.806L224.06 325.904C225.392 326.804 227.642 328.73 228.542 329.666L229.676 328.532C228.668 327.524 226.364 325.652 225.086 324.806ZM223.538 336.866L224.492 338.342C227.498 337.784 229.766 336.686 231.566 335.552C234.284 333.842 236.39 331.394 237.614 329.144L236.75 327.614C235.706 329.828 233.51 332.492 230.738 334.238C229.028 335.3 226.688 336.398 223.538 336.866ZM245.066 336.416C245.066 337.082 245.03 337.964 244.94 338.54H246.686C246.614 337.946 246.578 336.974 246.578 336.416C246.578 335.894 246.578 333.176 246.56 330.476C248.558 331.106 251.672 332.312 253.634 333.374L254.246 331.844C252.356 330.89 248.936 329.594 246.56 328.874C246.56 327.74 246.56 326.696 246.56 325.94C246.56 325.4 246.632 324.626 246.686 324.068H244.922C245.03 324.626 245.066 325.436 245.066 325.94V336.416ZM260.096 325.652V327.254C260.51 327.236 261.41 327.2 262.076 327.2H270.698V335.696H261.86C261.104 335.696 260.33 335.642 259.862 335.588V337.226C260.348 337.19 261.158 337.154 261.896 337.154H270.698C270.68 337.586 270.68 337.964 270.662 338.162H272.282C272.264 337.874 272.21 337.064 272.21 336.416V327.128C272.21 326.696 272.246 326.138 272.264 325.724C271.904 325.742 271.364 325.76 270.932 325.76H262.058C261.482 325.76 260.69 325.724 260.096 325.652ZM55.58 345.896L53.924 345.32C53.852 345.716 53.69 346.292 53.564 346.652C53.024 348.182 52.286 349.892 51.116 351.566C49.694 350.468 47.606 348.992 46.058 348.002L45.122 349.136C46.85 350.216 48.866 351.692 50.198 352.772C48.416 354.95 46.202 356.948 43.052 358.424L44.294 359.558C47.426 357.92 49.658 355.778 51.35 353.744C52.898 355.076 54.266 356.354 55.598 357.884L56.732 356.642C55.454 355.256 53.906 353.852 52.286 352.52C53.492 350.774 54.392 348.794 54.986 347.21C55.13 346.832 55.382 346.22 55.58 345.896ZM63.086 345.806L62.06 346.904C63.392 347.804 65.642 349.73 66.542 350.666L67.676 349.532C66.668 348.524 64.364 346.652 63.086 345.806ZM61.538 357.866L62.492 359.342C65.498 358.784 67.766 357.686 69.566 356.552C72.284 354.842 74.39 352.394 75.614 350.144L74.75 348.614C73.706 350.828 71.51 353.492 68.738 355.238C67.028 356.3 64.688 357.398 61.538 357.866ZM83.066 357.416C83.066 358.082 83.03 358.964 82.94 359.54H84.686C84.614 358.946 84.578 357.974 84.578 357.416C84.578 356.894 84.578 354.176 84.56 351.476C86.558 352.106 89.672 353.312 91.634 354.374L92.246 352.844C90.356 351.89 86.936 350.594 84.56 349.874C84.56 348.74 84.56 347.696 84.56 346.94C84.56 346.4 84.632 345.626 84.686 345.068H82.922C83.03 345.626 83.066 346.436 83.066 346.94V357.416ZM98.096 346.652V348.254C98.51 348.236 99.41 348.2 100.076 348.2H108.698V356.696H99.86C99.104 356.696 98.33 356.642 97.862 356.588V358.226C98.348 358.19 99.158 358.154 99.896 358.154H108.698C108.68 358.586 108.68 358.964 108.662 359.162H110.282C110.264 358.874 110.21 358.064 110.21 357.416V348.128C110.21 347.696 110.246 347.138 110.264 346.724C109.904 346.742 109.364 346.76 108.932 346.76H100.058C99.482 346.76 98.69 346.724 98.096 346.652ZM127.58 345.896L125.924 345.32C125.852 345.716 125.69 346.292 125.564 346.652C125.024 348.182 124.286 349.892 123.116 351.566C121.694 350.468 119.606 348.992 118.058 348.002L117.122 349.136C118.85 350.216 120.866 351.692 122.198 352.772C120.416 354.95 118.202 356.948 115.052 358.424L116.294 359.558C119.426 357.92 121.658 355.778 123.35 353.744C124.898 355.076 126.266 356.354 127.598 357.884L128.732 356.642C127.454 355.256 125.906 353.852 124.286 352.52C125.492 350.774 126.392 348.794 126.986 347.21C127.13 346.832 127.382 346.22 127.58 345.896ZM135.086 345.806L134.06 346.904C135.392 347.804 137.642 349.73 138.542 350.666L139.676 349.532C138.668 348.524 136.364 346.652 135.086 345.806ZM133.538 357.866L134.492 359.342C137.498 358.784 139.766 357.686 141.566 356.552C144.284 354.842 146.39 352.394 147.614 350.144L146.75 348.614C145.706 350.828 143.51 353.492 140.738 355.238C139.028 356.3 136.688 357.398 133.538 357.866ZM155.066 357.416C155.066 358.082 155.03 358.964 154.94 359.54H156.686C156.614 358.946 156.578 357.974 156.578 357.416C156.578 356.894 156.578 354.176 156.56 351.476C158.558 352.106 161.672 353.312 163.634 354.374L164.246 352.844C162.356 351.89 158.936 350.594 156.56 349.874C156.56 348.74 156.56 347.696 156.56 346.94C156.56 346.4 156.632 345.626 156.686 345.068H154.922C155.03 345.626 155.066 346.436 155.066 346.94V357.416ZM170.096 346.652V348.254C170.51 348.236 171.41 348.2 172.076 348.2H180.698V356.696H171.86C171.104 356.696 170.33 356.642 169.862 356.588V358.226C170.348 358.19 171.158 358.154 171.896 358.154H180.698C180.68 358.586 180.68 358.964 180.662 359.162H182.282C182.264 358.874 182.21 358.064 182.21 357.416V348.128C182.21 347.696 182.246 347.138 182.264 346.724C181.904 346.742 181.364 346.76 180.932 346.76H172.058C171.482 346.76 170.69 346.724 170.096 346.652ZM199.58 345.896L197.924 345.32C197.852 345.716 197.69 346.292 197.564 346.652C197.024 348.182 196.286 349.892 195.116 351.566C193.694 350.468 191.606 348.992 190.058 348.002L189.122 349.136C190.85 350.216 192.866 351.692 194.198 352.772C192.416 354.95 190.202 356.948 187.052 358.424L188.294 359.558C191.426 357.92 193.658 355.778 195.35 353.744C196.898 355.076 198.266 356.354 199.598 357.884L200.732 356.642C199.454 355.256 197.906 353.852 196.286 352.52C197.492 350.774 198.392 348.794 198.986 347.21C199.13 346.832 199.382 346.22 199.58 345.896ZM207.086 345.806L206.06 346.904C207.392 347.804 209.642 349.73 210.542 350.666L211.676 349.532C210.668 348.524 208.364 346.652 207.086 345.806ZM205.538 357.866L206.492 359.342C209.498 358.784 211.766 357.686 213.566 356.552C216.284 354.842 218.39 352.394 219.614 350.144L218.75 348.614C217.706 350.828 215.51 353.492 212.738 355.238C211.028 356.3 208.688 357.398 205.538 357.866ZM227.066 357.416C227.066 358.082 227.03 358.964 226.94 359.54H228.686C228.614 358.946 228.578 357.974 228.578 357.416C228.578 356.894 228.578 354.176 228.56 351.476C230.558 352.106 233.672 353.312 235.634 354.374L236.246 352.844C234.356 351.89 230.936 350.594 228.56 349.874C228.56 348.74 228.56 347.696 228.56 346.94C228.56 346.4 228.632 345.626 228.686 345.068H226.922C227.03 345.626 227.066 346.436 227.066 346.94V357.416ZM242.096 346.652V348.254C242.51 348.236 243.41 348.2 244.076 348.2H252.698V356.696H243.86C243.104 356.696 242.33 356.642 241.862 356.588V358.226C242.348 358.19 243.158 358.154 243.896 358.154H252.698C252.68 358.586 252.68 358.964 252.662 359.162H254.282C254.264 358.874 254.21 358.064 254.21 357.416V348.128C254.21 347.696 254.246 347.138 254.264 346.724C253.904 346.742 253.364 346.76 252.932 346.76H244.058C243.482 346.76 242.69 346.724 242.096 346.652ZM271.58 345.896L269.924 345.32C269.852 345.716 269.69 346.292 269.564 346.652C269.024 348.182 268.286 349.892 267.116 351.566C265.694 350.468 263.606 348.992 262.058 348.002L261.122 349.136C262.85 350.216 264.866 351.692 266.198 352.772C264.416 354.95 262.202 356.948 259.052 358.424L260.294 359.558C263.426 357.92 265.658 355.778 267.35 353.744C268.898 355.076 270.266 356.354 271.598 357.884L272.732 356.642C271.454 355.256 269.906 353.852 268.286 352.52C269.492 350.774 270.392 348.794 270.986 347.21C271.13 346.832 271.382 346.22 271.58 345.896ZM45.086 366.806L44.06 367.904C45.392 368.804 47.642 370.73 48.542 371.666L49.676 370.532C48.668 369.524 46.364 367.652 45.086 366.806ZM43.538 378.866L44.492 380.342C47.498 379.784 49.766 378.686 51.566 377.552C54.284 375.842 56.39 373.394 57.614 371.144L56.75 369.614C55.706 371.828 53.51 374.492 50.738 376.238C49.028 377.3 46.688 378.398 43.538 378.866ZM65.066 378.416C65.066 379.082 65.03 379.964 64.94 380.54H66.686C66.614 379.946 66.578 378.974 66.578 378.416C66.578 377.894 66.578 375.176 66.56 372.476C68.558 373.106 71.672 374.312 73.634 375.374L74.246 373.844C72.356 372.89 68.936 371.594 66.56 370.874C66.56 369.74 66.56 368.696 66.56 367.94C66.56 367.4 66.632 366.626 66.686 366.068H64.922C65.03 366.626 65.066 367.436 65.066 367.94V378.416ZM80.096 367.652V369.254C80.51 369.236 81.41 369.2 82.076 369.2H90.698V377.696H81.86C81.104 377.696 80.33 377.642 79.862 377.588V379.226C80.348 379.19 81.158 379.154 81.896 379.154H90.698C90.68 379.586 90.68 379.964 90.662 380.162H92.282C92.264 379.874 92.21 379.064 92.21 378.416V369.128C92.21 368.696 92.246 368.138 92.264 367.724C91.904 367.742 91.364 367.76 90.932 367.76H82.058C81.482 367.76 80.69 367.724 80.096 367.652ZM109.58 366.896L107.924 366.32C107.852 366.716 107.69 367.292 107.564 367.652C107.024 369.182 106.286 370.892 105.116 372.566C103.694 371.468 101.606 369.992 100.058 369.002L99.122 370.136C100.85 371.216 102.866 372.692 104.198 373.772C102.416 375.95 100.202 377.948 97.052 379.424L98.294 380.558C101.426 378.92 103.658 376.778 105.35 374.744C106.898 376.076 108.266 377.354 109.598 378.884L110.732 377.642C109.454 376.256 107.906 374.852 106.286 373.52C107.492 371.774 108.392 369.794 108.986 368.21C109.13 367.832 109.382 367.22 109.58 366.896ZM117.086 366.806L116.06 367.904C117.392 368.804 119.642 370.73 120.542 371.666L121.676 370.532C120.668 369.524 118.364 367.652 117.086 366.806ZM115.538 378.866L116.492 380.342C119.498 379.784 121.766 378.686 123.566 377.552C126.284 375.842 128.39 373.394 129.614 371.144L128.75 369.614C127.706 371.828 125.51 374.492 122.738 376.238C121.028 377.3 118.688 378.398 115.538 378.866ZM137.066 378.416C137.066 379.082 137.03 379.964 136.94 380.54H138.686C138.614 379.946 138.578 378.974 138.578 378.416C138.578 377.894 138.578 375.176 138.56 372.476C140.558 373.106 143.672 374.312 145.634 375.374L146.246 373.844C144.356 372.89 140.936 371.594 138.56 370.874C138.56 369.74 138.56 368.696 138.56 367.94C138.56 367.4 138.632 366.626 138.686 366.068H136.922C137.03 366.626 137.066 367.436 137.066 367.94V378.416ZM152.096 367.652V369.254C152.51 369.236 153.41 369.2 154.076 369.2H162.698V377.696H153.86C153.104 377.696 152.33 377.642 151.862 377.588V379.226C152.348 379.19 153.158 379.154 153.896 379.154H162.698C162.68 379.586 162.68 379.964 162.662 380.162H164.282C164.264 379.874 164.21 379.064 164.21 378.416V369.128C164.21 368.696 164.246 368.138 164.264 367.724C163.904 367.742 163.364 367.76 162.932 367.76H154.058C153.482 367.76 152.69 367.724 152.096 367.652ZM181.58 366.896L179.924 366.32C179.852 366.716 179.69 367.292 179.564 367.652C179.024 369.182 178.286 370.892 177.116 372.566C175.694 371.468 173.606 369.992 172.058 369.002L171.122 370.136C172.85 371.216 174.866 372.692 176.198 373.772C174.416 375.95 172.202 377.948 169.052 379.424L170.294 380.558C173.426 378.92 175.658 376.778 177.35 374.744C178.898 376.076 180.266 377.354 181.598 378.884L182.732 377.642C181.454 376.256 179.906 374.852 178.286 373.52C179.492 371.774 180.392 369.794 180.986 368.21C181.13 367.832 181.382 367.22 181.58 366.896ZM189.086 366.806L188.06 367.904C189.392 368.804 191.642 370.73 192.542 371.666L193.676 370.532C192.668 369.524 190.364 367.652 189.086 366.806ZM187.538 378.866L188.492 380.342C191.498 379.784 193.766 378.686 195.566 377.552C198.284 375.842 200.39 373.394 201.614 371.144L200.75 369.614C199.706 371.828 197.51 374.492 194.738 376.238C193.028 377.3 190.688 378.398 187.538 378.866ZM209.066 378.416C209.066 379.082 209.03 379.964 208.94 380.54H210.686C210.614 379.946 210.578 378.974 210.578 378.416C210.578 377.894 210.578 375.176 210.56 372.476C212.558 373.106 215.672 374.312 217.634 375.374L218.246 373.844C216.356 372.89 212.936 371.594 210.56 370.874C210.56 369.74 210.56 368.696 210.56 367.94C210.56 367.4 210.632 366.626 210.686 366.068H208.922C209.03 366.626 209.066 367.436 209.066 367.94V378.416ZM224.096 367.652V369.254C224.51 369.236 225.41 369.2 226.076 369.2H234.698V377.696H225.86C225.104 377.696 224.33 377.642 223.862 377.588V379.226C224.348 379.19 225.158 379.154 225.896 379.154H234.698C234.68 379.586 234.68 379.964 234.662 380.162H236.282C236.264 379.874 236.21 379.064 236.21 378.416V369.128C236.21 368.696 236.246 368.138 236.264 367.724C235.904 367.742 235.364 367.76 234.932 367.76H226.058C225.482 367.76 224.69 367.724 224.096 367.652ZM253.58 366.896L251.924 366.32C251.852 366.716 251.69 367.292 251.564 367.652C251.024 369.182 250.286 370.892 249.116 372.566C247.694 371.468 245.606 369.992 244.058 369.002L243.122 370.136C244.85 371.216 246.866 372.692 248.198 373.772C246.416 375.95 244.202 377.948 241.052 379.424L242.294 380.558C245.426 378.92 247.658 376.778 249.35 374.744C250.898 376.076 252.266 377.354 253.598 378.884L254.732 377.642C253.454 376.256 251.906 374.852 250.286 373.52C251.492 371.774 252.392 369.794 252.986 368.21C253.13 367.832 253.382 367.22 253.58 366.896ZM261.086 366.806L260.06 367.904C261.392 368.804 263.642 370.73 264.542 371.666L265.676 370.532C264.668 369.524 262.364 367.652 261.086 366.806ZM259.538 378.866L260.492 380.342C263.498 379.784 265.766 378.686 267.566 377.552C270.284 375.842 272.39 373.394 273.614 371.144L272.75 369.614C271.706 371.828 269.51 374.492 266.738 376.238C265.028 377.3 262.688 378.398 259.538 378.866Z" fill="black"/>
</g>
<rect width="245" height="101" transform="translate(37 18)" fill="white"/>
<path d="M124.864 30.16L122.68 29.464C122.536 30.088 122.152 30.928 121.912 31.36C120.784 33.544 118.336 37.144 114.208 39.712L115.816 40.96C118.504 39.112 120.64 36.76 122.176 34.6H130.288C129.808 36.568 128.584 39.16 127.024 41.248C125.344 40.072 123.544 38.92 121.96 38.008L120.664 39.328C122.2 40.288 124.024 41.536 125.752 42.784C123.592 45.112 120.52 47.32 116.464 48.568L118.192 50.056C122.248 48.544 125.2 46.336 127.336 43.96C128.32 44.752 129.232 45.496 129.952 46.144L131.368 44.488C130.6 43.864 129.64 43.12 128.632 42.376C130.456 39.928 131.752 37.12 132.376 34.912C132.52 34.528 132.736 33.952 132.952 33.616L131.368 32.656C130.96 32.8 130.432 32.896 129.784 32.896H123.28C123.472 32.608 123.64 32.32 123.784 32.032C124.024 31.6 124.456 30.784 124.864 30.16ZM138.064 40.336L139.024 42.208C142.36 41.176 145.648 39.736 148.168 38.296V47.176C148.168 48.088 148.096 49.288 148.024 49.744H150.376C150.28 49.264 150.232 48.088 150.232 47.176V37.048C152.68 35.416 154.888 33.592 156.712 31.696L155.104 30.208C153.448 32.2 151.048 34.288 148.552 35.848C145.888 37.528 142.216 39.208 138.064 40.336ZM168.088 46.888C168.088 47.776 168.04 48.952 167.92 49.72H170.248C170.152 48.928 170.104 47.632 170.104 46.888C170.104 46.192 170.104 42.568 170.08 38.968C172.744 39.808 176.896 41.416 179.512 42.832L180.328 40.792C177.808 39.52 173.248 37.792 170.08 36.832C170.08 35.32 170.08 33.928 170.08 32.92C170.08 32.2 170.176 31.168 170.248 30.424H167.896C168.04 31.168 168.088 32.248 168.088 32.92V46.888ZM196.576 48.496L197.848 49.552C198.016 49.408 198.28 49.216 198.664 49C201.448 47.632 204.784 45.16 206.848 42.352L205.72 40.72C203.872 43.432 200.92 45.616 198.712 46.624V32.776C198.712 31.864 198.784 31.168 198.808 31H196.6C196.624 31.168 196.744 31.864 196.744 32.776V47.152C196.744 47.632 196.672 48.112 196.576 48.496ZM185.584 48.376L187.384 49.6C189.4 47.92 190.936 45.568 191.656 43C192.304 40.6 192.4 35.464 192.4 32.8C192.4 32.08 192.496 31.36 192.52 31.072H190.312C190.408 31.576 190.48 32.104 190.48 32.824C190.48 35.488 190.456 40.288 189.76 42.472C189.04 44.8 187.6 46.936 185.584 48.376ZM129.782 59.096L128.462 59.648C129.254 60.752 130.046 62.192 130.646 63.44L132.014 62.816C131.462 61.688 130.382 59.96 129.782 59.096ZM132.926 57.944L131.582 58.52C132.398 59.6 133.214 60.968 133.862 62.24L135.23 61.616C134.63 60.512 133.574 58.784 132.926 57.944ZM119.534 58.736L118.454 60.344C119.846 61.16 122.462 62.888 123.614 63.776L124.742 62.12C123.71 61.376 120.95 59.528 119.534 58.736ZM115.934 75.896L117.038 77.84C119.27 77.384 122.582 76.28 124.982 74.864C128.822 72.608 132.134 69.512 134.222 66.296L133.07 64.304C131.126 67.688 127.958 70.832 123.974 73.112C121.55 74.48 118.55 75.44 115.934 75.896ZM115.91 64.136L114.83 65.768C116.294 66.512 118.886 68.192 120.086 69.056L121.166 67.376C120.134 66.632 117.326 64.904 115.91 64.136ZM144.642 62.312L142.578 62.816C142.794 63.176 142.986 63.656 143.154 64.256C143.298 64.712 143.586 65.744 143.946 67.016C142.482 67.28 141.354 67.496 141.018 67.544C140.298 67.664 139.698 67.76 139.026 67.808L139.506 69.632C140.154 69.488 142.122 69.104 144.378 68.648C145.314 72.08 146.466 76.328 146.778 77.408C146.946 78.008 147.066 78.632 147.138 79.16L149.178 78.632C149.034 78.2 148.794 77.456 148.65 77C148.338 75.944 147.162 71.72 146.202 68.264C149.538 67.592 152.922 66.92 153.474 66.824C152.658 68.264 150.858 70.472 149.346 71.768L151.05 72.608C152.682 71 155.154 67.64 156.162 65.6L154.962 64.76C154.722 64.88 154.338 64.976 154.05 65.048C153.234 65.24 149.154 66.032 145.77 66.68C145.41 65.408 145.122 64.376 144.978 63.848C144.834 63.248 144.714 62.72 144.642 62.312ZM164.85 59.408L163.482 60.872C165.258 62.072 168.258 64.64 169.458 65.888L170.97 64.376C169.626 63.032 166.554 60.536 164.85 59.408ZM162.786 75.488L164.058 77.456C168.066 76.712 171.09 75.248 173.49 73.736C177.114 71.456 179.922 68.192 181.554 65.192L180.402 63.152C179.01 66.104 176.082 69.656 172.386 71.984C170.106 73.4 166.986 74.864 162.786 75.488ZM195.978 76.496L197.25 77.552C197.418 77.408 197.682 77.216 198.066 77C200.85 75.632 204.186 73.16 206.25 70.352L205.122 68.72C203.274 71.432 200.322 73.616 198.114 74.624V60.776C198.114 59.864 198.186 59.168 198.21 59H196.002C196.026 59.168 196.146 59.864 196.146 60.776V75.152C196.146 75.632 196.074 76.112 195.978 76.496ZM184.986 76.376L186.786 77.6C188.802 75.92 190.338 73.568 191.058 71C191.706 68.6 191.802 63.464 191.802 60.8C191.802 60.08 191.898 59.36 191.922 59.072H189.714C189.81 59.576 189.882 60.104 189.882 60.824C189.882 63.488 189.858 68.288 189.162 70.472C188.442 72.8 187.002 74.936 184.986 76.376ZM129.979 87.264L128.083 87.792C128.251 88.416 128.443 88.992 128.635 89.568C130.195 98.472 128.155 104.256 122.635 104.256C120.187 104.256 117.955 103.104 117.955 99.72C117.955 94.8 121.603 90.576 123.139 89.472C123.475 89.304 124.099 89.136 124.411 89.04L123.859 87.336C122.443 87.864 118.387 88.44 116.251 88.536C115.819 88.56 115.315 88.56 114.979 88.536L115.123 90.552C115.603 90.48 116.011 90.408 116.467 90.36C117.331 90.24 119.323 90 120.547 89.808C118.411 92.184 116.059 95.64 116.059 100.128C116.059 104.088 118.819 106.2 122.587 106.2C129.235 106.2 131.059 100.44 130.555 94.392C131.467 96.192 132.523 97.752 133.819 99.12L135.067 97.416C131.515 94.248 130.483 90.168 129.979 87.264ZM143.029 86.328L141.133 87.12C142.237 89.736 143.509 92.544 144.613 94.512C142.045 96.312 140.461 98.256 140.461 100.728C140.461 104.328 143.725 105.672 148.237 105.672C151.237 105.672 153.997 105.384 155.821 105.072V102.936C153.949 103.416 150.757 103.752 148.141 103.752C144.349 103.752 142.453 102.504 142.453 100.512C142.453 98.688 143.797 97.104 146.029 95.664C148.381 94.104 151.693 92.52 153.325 91.68C154.021 91.32 154.621 91.008 155.173 90.672L154.117 88.968C153.613 89.376 153.109 89.688 152.413 90.096C151.093 90.816 148.501 92.088 146.245 93.456C145.189 91.56 143.989 88.968 143.029 86.328ZM165.277 88.152V90.12C167.173 90.264 169.213 90.384 171.613 90.384C173.845 90.384 176.461 90.216 178.093 90.096V88.128C176.365 88.296 173.917 88.464 171.613 88.464C169.213 88.464 167.005 88.368 165.277 88.152ZM166.237 97.824L164.293 97.632C164.077 98.616 163.789 99.744 163.789 100.968C163.789 103.992 166.621 105.6 171.493 105.6C174.901 105.6 177.949 105.24 179.677 104.76L179.653 102.696C177.853 103.296 174.757 103.656 171.445 103.656C167.605 103.656 165.733 102.384 165.733 100.56C165.733 99.672 165.925 98.784 166.237 97.824ZM191.029 86.328L189.133 87.12C190.237 89.736 191.509 92.544 192.613 94.512C190.045 96.312 188.461 98.256 188.461 100.728C188.461 104.328 191.725 105.672 196.237 105.672C199.237 105.672 201.997 105.384 203.821 105.072V102.936C201.949 103.416 198.757 103.752 196.141 103.752C192.349 103.752 190.453 102.504 190.453 100.512C190.453 98.688 191.797 97.104 194.029 95.664C196.381 94.104 199.693 92.52 201.325 91.68C202.021 91.32 202.621 91.008 203.173 90.672L202.117 88.968C201.613 89.376 201.109 89.688 200.413 90.096C199.093 90.816 196.501 92.088 194.245 93.456C193.189 91.56 191.989 88.968 191.029 86.328Z" fill="black"/>
<rect width="25" height="42" transform="translate(289 9)" fill="white"/>
<rect width="25" height="42" transform="translate(289 127)" fill="white"/>
<g clip-path="url(#clip3)">
<rect width="25" height="42" transform="translate(289 68)" fill="white"/>
<g clip-path="url(#clip4)">
<rect width="25" height="42" transform="translate(289 69)" fill="white"/>
<rect width="25" height="42" transform="translate(289 70)" fill="white"/>
</g>
</g>
<rect width="25" height="42" transform="translate(6 186)" fill="white"/>
<rect width="25" height="42" transform="translate(6 245)" fill="white"/>
<g clip-path="url(#clip5)">
<rect width="25" height="42" transform="translate(6 304)" fill="white"/>
<rect width="25" height="42" transform="translate(6 305)" fill="white"/>
</g>
<g clip-path="url(#clip6)">
<rect width="25" height="42" transform="translate(6 363)" fill="white"/>
<rect width="25" height="42" transform="translate(6 364)" fill="white"/>
</g>
<rect width="25" height="42" transform="translate(6 9)" fill="white"/>
<rect width="25" height="42" transform="translate(6 127)" fill="white"/>
<g clip-path="url(#clip7)">
<rect width="25" height="42" transform="translate(6 68)" fill="white"/>
<g clip-path="url(#clip8)">
<rect width="25" height="42" transform="translate(6 69)" fill="white"/>
<rect width="25" height="42" transform="translate(6 70)" fill="white"/>
</g>
</g>
<defs>
<clipPath id="clip0">
<rect width="25" height="42" fill="white" transform="translate(289 304)"/>
</clipPath>
<clipPath id="clip1">
<rect width="25" height="42" fill="white" transform="translate(289 363)"/>
</clipPath>
<clipPath id="clip2">
<rect width="245" height="255" fill="white" transform="translate(37 141)"/>
</clipPath>
<clipPath id="clip3">
<rect width="25" height="42" fill="white" transform="translate(289 68)"/>
</clipPath>
<clipPath id="clip4">
<rect width="25" height="42" fill="white" transform="translate(289 69)"/>
</clipPath>
<clipPath id="clip5">
<rect width="25" height="42" fill="white" transform="translate(6 304)"/>
</clipPath>
<clipPath id="clip6">
<rect width="25" height="42" fill="white" transform="translate(6 363)"/>
</clipPath>
<clipPath id="clip7">
<rect width="25" height="42" fill="white" transform="translate(6 68)"/>
</clipPath>
<clipPath id="clip8">
<rect width="25" height="42" fill="white" transform="translate(6 69)"/>
</clipPath>
</defs>
</svg>
