<svg width="170" height="138" viewBox="0 0 170 138" fill="none" xmlns="http://www.w3.org/2000/svg">
<rect x="6.47083" y="42.7158" width="158" height="95" fill="black"/>
<g clip-path="url(#clip0)">
<rect width="170" height="19" transform="translate(0 24)" fill="white"/>
<rect y="24" width="170" height="19" fill="black"/>
<rect width="22.8699" height="30.7477" transform="matrix(0.90531 0.424752 -0.27173 0.962374 131.296 14)" fill="white"/>
<rect width="22.8699" height="30.7477" transform="matrix(0.90531 0.424752 -0.27173 0.962374 102.038 14)" fill="white"/>
<rect width="22.8699" height="30.7477" transform="matrix(0.90531 0.424752 -0.27173 0.962374 73.3353 14)" fill="white"/>
<rect width="22.8699" height="30.7477" transform="matrix(0.90531 0.424752 -0.27173 0.962374 44.355 14)" fill="white"/>
</g>
<g clip-path="url(#clip1)">
<rect width="170" height="19" fill="white"/>
<rect width="170" height="19" fill="black"/>
<rect width="22.8699" height="30.7477" transform="matrix(0.99282 -0.119617 0.279623 0.96011 121.819 -3.74036)" fill="white"/>
<rect width="22.8699" height="30.7477" transform="matrix(0.99282 -0.119617 0.279623 0.96011 92.5612 -3.74036)" fill="white"/>
<rect width="22.8699" height="30.7477" transform="matrix(0.99282 -0.119617 0.279623 0.96011 63.8581 -3.74036)" fill="white"/>
<rect width="22.8699" height="30.7477" transform="matrix(0.99282 -0.119617 0.279623 0.96011 34.8778 -3.74036)" fill="white"/>
</g>
<defs>
<clipPath id="clip0">
<rect width="170" height="19" fill="white" transform="translate(0 24)"/>
</clipPath>
<clipPath id="clip1">
<rect width="170" height="19" fill="white"/>
</clipPath>
</defs>
</svg>
