<svg width="331" height="40" viewBox="0 0 331 40" fill="none" xmlns="http://www.w3.org/2000/svg">
<path d="M25.96 13.352L24.488 12.84C24.424 13.192 24.28 13.704 24.168 14.024C23.688 15.384 23.032 16.904 21.992 18.392C20.728 17.416 18.872 16.104 17.496 15.224L16.664 16.232C18.2 17.192 19.992 18.504 21.176 19.464C19.592 21.4 17.624 23.176 14.824 24.488L15.928 25.496C18.712 24.04 20.696 22.136 22.2 20.328C23.576 21.512 24.792 22.648 25.976 24.008L26.984 22.904C25.848 21.672 24.472 20.424 23.032 19.24C24.104 17.688 24.904 15.928 25.432 14.52C25.56 14.184 25.784 13.64 25.96 13.352ZM36.728 15.784L35.56 16.184C35.896 16.904 36.632 18.936 36.808 19.656L37.992 19.24C37.784 18.536 37 16.424 36.728 15.784ZM42.52 16.68L41.144 16.248C40.904 18.296 40.072 20.328 38.936 21.72C37.624 23.368 35.592 24.584 33.736 25.128L34.792 26.2C36.584 25.512 38.536 24.28 40.008 22.392C41.16 20.952 41.848 19.24 42.28 17.48C42.344 17.272 42.408 17.016 42.52 16.68ZM33.016 16.584L31.832 17.048C32.152 17.608 33.016 19.816 33.256 20.648L34.472 20.2C34.168 19.368 33.336 17.272 33.016 16.584ZM49.896 22.936C49.896 24.52 50.44 25.288 53.416 25.288C55.416 25.288 57.016 25.176 58.44 24.968L58.504 23.592C56.904 23.896 55.368 24.056 53.512 24.056C51.608 24.056 51.192 23.704 51.192 22.6V17.832C54.024 17.256 56.968 16.664 57.24 16.616C56.76 17.576 55.592 19.336 54.392 20.424L55.512 21.096C56.792 19.768 58.056 17.768 58.792 16.44C58.904 16.232 59.064 15.96 59.176 15.8L58.232 15.064C58.04 15.176 57.736 15.272 57.384 15.352C56.712 15.496 53.912 16.072 51.192 16.6V14.104C51.192 13.64 51.224 13.096 51.304 12.632H49.784C49.864 13.096 49.896 13.624 49.896 14.104V16.84C48.2 17.16 46.68 17.432 45.96 17.528L46.2 18.856C46.856 18.712 48.28 18.424 49.896 18.088V22.936ZM62.632 18.072V19.64C63.128 19.592 63.976 19.56 64.856 19.56H73.64C74.36 19.56 75.032 19.624 75.352 19.64V18.072C75 18.104 74.424 18.152 73.624 18.152H64.856C63.96 18.152 63.112 18.104 62.632 18.072ZM88.1435 13.064L87.2635 13.432C87.7915 14.168 88.3195 15.128 88.7195 15.96L89.6315 15.544C89.2635 14.792 88.5435 13.64 88.1435 13.064ZM90.2395 12.296L89.3435 12.68C89.8875 13.4 90.4315 14.312 90.8635 15.16L91.7755 14.744C91.3755 14.008 90.6715 12.856 90.2395 12.296ZM81.3115 12.824L80.5915 13.896C81.5195 14.44 83.2635 15.592 84.0315 16.184L84.7835 15.08C84.0955 14.584 82.2555 13.352 81.3115 12.824ZM78.9115 24.264L79.6475 25.56C81.1355 25.256 83.3435 24.52 84.9435 23.576C87.5035 22.072 89.7115 20.008 91.1035 17.864L90.3355 16.536C89.0395 18.792 86.9275 20.888 84.2715 22.408C82.6555 23.32 80.6555 23.96 78.9115 24.264ZM78.8955 16.424L78.1755 17.512C79.1515 18.008 80.8795 19.128 81.6795 19.704L82.3995 18.584C81.7115 18.088 79.8395 16.936 78.8955 16.424ZM96.3675 12.584V13.768H100.304C100.336 14.376 100.4 15.08 100.512 15.816L99.8075 15.704C98.8315 20.184 96.8635 23.4 93.3275 25.24C93.6475 25.448 94.1755 25.944 94.3995 26.184C97.5835 24.312 99.5995 21.4 100.784 17.256C101.503 20.28 103.2 23.784 107.136 26.168C107.344 25.88 107.824 25.368 108.096 25.176C101.824 21.448 101.456 15.416 101.456 12.584H96.3675ZM116.496 15.096C116.496 14.856 116.496 14.632 116.496 14.408V11.64H115.264V14.408C115.264 14.632 115.264 14.856 115.264 15.096H110.08V16.28H115.2C114.96 19.272 113.936 22.776 109.6 25.352C109.888 25.544 110.32 26.008 110.512 26.296C115.152 23.464 116.208 19.592 116.432 16.28H121.888C121.584 21.912 121.232 24.168 120.656 24.712C120.464 24.904 120.256 24.952 119.92 24.952C119.52 24.952 118.496 24.936 117.408 24.84C117.648 25.192 117.792 25.704 117.808 26.056C118.784 26.12 119.808 26.152 120.368 26.104C120.976 26.04 121.36 25.912 121.728 25.464C122.432 24.664 122.768 22.28 123.12 15.72C123.136 15.544 123.152 15.096 123.152 15.096H116.496Z" fill="black"/>
<rect x="253" y="2" width="77" height="36" fill="black"/>
<path d="M286.364 8.912C285.884 10.112 284.9 11.84 284.132 12.944L285.596 13.472C286.388 12.464 287.348 10.88 288.188 9.512L286.364 8.912ZM290.204 20V18.392H283.316C283.34 18.176 283.34 17.96 283.34 17.744V15.056H289.484V13.472H279.14L280.58 12.824C280.244 11.744 279.332 10.16 278.396 9.008L276.884 9.608C277.772 10.784 278.66 12.392 278.948 13.472H275.948V15.056H281.564V17.72C281.564 17.936 281.564 18.152 281.54 18.392H275.18V20H281.348C280.916 22.064 279.524 24.344 275.372 26.024C275.756 26.36 276.308 26.984 276.548 27.344C280.364 25.64 282.068 23.432 282.812 21.272C283.988 24.32 286.004 26.36 289.124 27.44C289.364 26.984 289.844 26.312 290.252 25.952C287.036 25.04 284.996 23 283.988 20H290.204ZM274.508 13.208C273.692 12.056 271.868 10.52 270.332 9.512L269.012 10.592C270.572 11.648 272.348 13.232 273.092 14.384L274.508 13.208ZM273.836 18.32H268.748V20H272.084V26.072C270.884 27.08 269.54 28.088 268.436 28.808L269.396 30.608C270.668 29.576 271.868 28.544 273.02 27.536C274.556 29.384 276.692 30.248 279.812 30.368C282.452 30.464 287.372 30.416 289.988 30.32C290.06 29.768 290.372 28.928 290.564 28.496C287.756 28.688 282.428 28.76 279.812 28.664C277.052 28.544 274.964 27.728 273.836 25.976V18.32ZM312.236 10.064H301.244V11.528H312.236V10.064ZM298.196 8.984C296.804 12.608 294.476 16.16 292.052 18.44C292.364 18.848 292.892 19.784 293.06 20.168C293.972 19.256 294.86 18.2 295.724 17V30.752H297.404V14.432C298.34 12.872 299.18 11.168 299.852 9.488L298.196 8.984ZM311.108 24.704V28.232H302.42V24.704H311.108ZM300.692 30.824H302.42V29.696H311.108V30.752H312.884V23.264H300.692V30.824ZM300.956 21.416H312.62V19.976H300.956V21.416ZM312.668 16.664H300.956V18.128H312.668V16.664ZM298.988 13.352V14.84H314.492V13.352H298.988Z" fill="white"/>
<path d="M329 2V38H2V2H165.5H329Z" stroke="black" stroke-width="4"/>
</svg>
